<svg xmlns="http://www.w3.org/2000/svg" version="1.1" xmlns:xlink="http://www.w3.org/1999/xlink" xmlns:svgjs="http://svgjs.dev/svgjs" width="1440" height="560" preserveAspectRatio="none" viewBox="0 0 1440 560"><g mask="url(&quot;#SvgjsMask1003&quot;)" fill="none"><rect width="1440" height="560" x="0" y="0" fill="rgba(14, 53, 92, 1)"></rect><path d="M85.49 399.54L89.08 399.54L89.08 403.13L85.49 403.13z" stroke="#037b0b"></path><path d="M1272.1 450.06L1321.5 450.06L1321.5 467.56L1272.1 467.56z" stroke="#d3b714"></path><path d="M651.85 413.04a20.01 20.01 0 1 0-19.92-34.71z" stroke="#d3b714"></path><path d="M763.34 399.78L811.15 399.78L811.15 447.59L763.34 447.59z" stroke="#e73635"></path><path d="M132.11 329.02L132.79 329.02L132.79 329.7L132.11 329.7z" fill="#d3b714"></path><path d="M176.59 186.27L209.6 186.27L209.6 219.28L176.59 219.28z" stroke="#d3b714"></path><path d="M276.38 266.3L317.94 266.3L317.94 287.06L276.38 287.06z" fill="#e73635"></path><path d="M667.6 113.63L674.2 113.63L674.2 128.08L667.6 128.08z" fill="#037b0b"></path><path d="M567.82 78.8 a31.79 31.79 0 1 0 63.58 0 a31.79 31.79 0 1 0 -63.58 0z" fill="#d3b714"></path><path d="M1422.77 308.17a38.36 38.36 0 1 0 16.46 74.93z" fill="#d3b714"></path><path d="M908.88 210.66a34.11 34.11 0 1 0-7.76 67.78z" fill="#037b0b"></path><path d="M214.82 52.26a37.24 37.24 0 1 0-36.05-65.18z" fill="#d3b714"></path><path d="M778.74 172.1L812.9 172.1L812.9 189.72L778.74 189.72z" stroke="#037b0b"></path><path d="M1215.01 38.26L1257.84 38.26L1257.84 81.09L1215.01 81.09z" stroke="#d3b714"></path><path d="M907.74 248.99L944.72 248.99L944.72 285.97L907.74 285.97z" stroke="#e73635"></path><path d="M1042.74 147.52L1079.48 147.52L1079.48 199L1042.74 199z" fill="#e73635"></path><path d="M1030.62 477.41 a20.15 20.15 0 1 0 40.3 0 a20.15 20.15 0 1 0 -40.3 0z" stroke="#e73635"></path><path d="M250.55 547.19a2.31 2.31 0 1 0 2.55-3.85z" fill="#037b0b"></path><path d="M374.86 557.36L394.14 557.36L394.14 603.26L374.86 603.26z" fill="#d3b714"></path><path d="M212.49 522.11L261.4 522.11L261.4 563.95L212.49 563.95z" fill="#037b0b"></path><path d="M1078.36 8.73 a5.39 5.39 0 1 0 10.78 0 a5.39 5.39 0 1 0 -10.78 0z" fill="#037b0b"></path><path d="M1281.98 184.29 a4.84 4.84 0 1 0 9.68 0 a4.84 4.84 0 1 0 -9.68 0z" fill="#037b0b"></path><path d="M608.46 65.36 a0.29 0.29 0 1 0 0.58 0 a0.29 0.29 0 1 0 -0.58 0z" fill="#e73635"></path><path d="M79.49 228.03L99.13 228.03L99.13 247.67L79.49 247.67z" fill="#e73635"></path><path d="M1100.53 102.2L1127.78 102.2L1127.78 129.45L1100.53 129.45z" stroke="#e73635"></path><path d="M502.01 393.03a12.68 12.68 0 1 0-7.41 24.25z" fill="#d3b714"></path><path d="M128.36 553.69a27.29 27.29 0 1 0-50.26-21.26z" fill="#037b0b"></path><path d="M365.8 34.55a45.52 45.52 0 1 0 43.99 79.71z" stroke="#d3b714"></path><path d="M765.97 524.18L790.05 524.18L790.05 577.78L765.97 577.78z" stroke="#d3b714"></path><path d="M655.71 538.67L673.28 538.67L673.28 556.24L655.71 556.24z" stroke="#d3b714"></path><path d="M732.84 198.17L785.73 198.17L785.73 251.06L732.84 251.06z" fill="#e73635"></path><path d="M1357.61 47.84L1404.52 47.84L1404.52 94.75L1357.61 94.75z" stroke="#d3b714"></path><path d="M1234.14 102.48 a39.92 39.92 0 1 0 79.84 0 a39.92 39.92 0 1 0 -79.84 0z" fill="#e73635"></path></g><defs><mask id="SvgjsMask1003"><rect width="1440" height="560" fill="#ffffff"></rect></mask></defs></svg>