<?xml version="1.0" standalone="no"?>
<!DOCTYPE svg PUBLIC "-//W3C//DTD SVG 20010904//EN"
 "http://www.w3.org/TR/2001/REC-SVG-20010904/DTD/svg10.dtd">
<svg version="1.0" xmlns="http://www.w3.org/2000/svg"
 width="1987.000000pt" height="1080.000000pt" viewBox="0 0 1987.000000 1080.000000"
 preserveAspectRatio="xMidYMid meet">

<g transform="translate(0.000000,1080.000000) scale(0.100000,-0.100000)"
fill="#000000" stroke="none">
<path d="M1974 10258 c-126 -39 -185 -124 -204 -287 -22 -184 11 -350 84 -429
98 -108 383 -107 484 2 99 108 121 426 39 579 -41 78 -85 112 -175 137 -88 24
-148 24 -228 -2z m238 -111 c58 -44 77 -88 90 -205 14 -138 -7 -280 -49 -324
-86 -91 -231 -91 -315 0 -60 64 -79 300 -35 432 19 57 28 69 71 98 43 29 56
32 121 32 67 0 77 -3 117 -33z"/>
<path d="M6165 10101 c-69 -25 -85 -34 -120 -71 -27 -28 -30 -38 -30 -93 1
-36 8 -77 17 -97 10 -19 27 -60 38 -90 12 -30 33 -84 47 -120 14 -36 26 -85
28 -110 3 -65 30 -220 44 -255 7 -16 15 -66 18 -111 7 -98 8 -98 -123 -114
-111 -14 -199 -54 -274 -126 -61 -58 -102 -73 -200 -74 -69 0 -211 -24 -266
-43 -102 -37 -146 -70 -173 -133 -28 -61 -84 -102 -202 -145 -57 -21 -117 -41
-134 -45 -99 -20 -232 -66 -247 -87 -10 -12 -45 -76 -79 -141 -56 -110 -60
-122 -54 -165 10 -73 95 -369 121 -421 7 -14 24 -52 39 -85 73 -160 232 -389
353 -511 l59 -59 6 -85 c8 -132 69 -348 106 -377 23 -17 138 -42 281 -60 156
-19 526 -13 705 12 318 44 697 142 727 189 4 6 5 34 2 62 -6 46 11 275 22 316
3 10 39 43 80 74 40 30 98 83 128 115 47 53 136 184 174 259 14 27 46 80 76
126 141 213 150 233 151 325 0 75 -1 79 -46 145 -25 38 -56 94 -68 124 -54
130 -98 207 -142 250 -62 61 -65 70 -73 180 -11 148 -85 396 -196 660 -17 41
-47 120 -67 175 -47 134 -103 252 -163 341 -28 41 -50 77 -50 80 0 4 -18 28
-40 54 -49 59 -153 112 -262 134 -99 20 -151 20 -213 -3z m274 -83 c84 -50
231 -242 238 -312 4 -28 1 -45 -8 -52 -16 -12 -382 -58 -419 -53 -18 3 -32 19
-57 69 -18 36 -33 70 -33 75 0 6 -11 37 -25 70 -24 60 -35 175 -17 201 38 57
227 58 321 2z m278 -451 c10 -9 25 -31 34 -49 9 -18 37 -74 63 -125 25 -50 46
-97 46 -104 0 -9 -16 -10 -58 -6 -66 7 -300 -15 -377 -36 -96 -26 -121 -1
-151 157 -21 103 -16 115 47 134 165 50 358 64 396 29z m168 -400 c13 -15 27
-44 30 -65 3 -20 12 -57 21 -82 65 -187 62 -194 -70 -185 -196 13 -285 36
-326 84 -8 10 -55 50 -103 90 -103 85 -120 112 -91 141 16 16 46 23 159 34 77
8 189 14 248 13 105 -2 110 -3 132 -30z m-530 -191 c41 -18 59 -47 42 -70 -7
-9 -50 -31 -97 -50 -141 -58 -200 -133 -200 -254 0 -67 13 -94 82 -171 32 -35
58 -69 58 -76 0 -13 -52 -25 -113 -25 -40 0 -41 1 -67 85 -6 22 -20 63 -30 90
-10 28 -26 75 -35 107 -18 63 -65 142 -101 170 -13 11 -24 28 -24 39 0 21 89
122 125 142 42 24 311 33 360 13z m167 -165 c13 -5 42 -27 66 -50 47 -45 47
-55 -1 -100 -18 -16 -37 -23 -64 -23 -46 1 -131 35 -139 57 -14 34 28 90 86
117 21 9 26 9 52 -1z m-735 -63 c54 -27 69 -53 112 -198 20 -66 39 -111 52
-120 11 -9 25 -34 30 -55 26 -102 30 -126 27 -157 -3 -32 -4 -33 -63 -41 -129
-16 -190 -31 -193 -50 -6 -29 102 -23 184 10 l66 27 19 -23 c42 -52 16 -95
-81 -130 -44 -16 -69 -33 -95 -65 -39 -48 -77 -62 -98 -37 -8 9 -28 51 -45 94
-37 91 -89 161 -228 306 -163 170 -198 220 -206 286 -3 29 16 48 139 130 70
47 109 55 232 50 83 -3 112 -9 148 -27z m1225 -16 c9 -9 20 -29 23 -44 11 -43
-25 -45 -122 -8 -84 32 -110 51 -97 71 11 18 174 2 196 -19z m-690 -96 c46
-19 101 -42 122 -51 30 -13 61 -16 120 -13 73 3 87 7 142 41 34 20 69 37 79
37 23 0 273 -124 309 -153 19 -15 26 -28 21 -36 -9 -15 -118 -66 -162 -75 -37
-8 -68 -39 -60 -60 3 -8 21 -16 39 -18 28 -3 33 -7 36 -33 2 -16 8 -33 14 -36
16 -10 88 9 142 37 68 36 87 28 134 -54 22 -37 43 -78 47 -92 4 -14 15 -38 25
-55 29 -48 42 -132 30 -194 -5 -30 -10 -55 -10 -57 0 -2 -22 -30 -50 -63 -42
-50 -109 -158 -180 -288 -67 -124 -133 -191 -230 -237 -41 -19 -62 -21 -265
-21 -162 0 -230 4 -260 14 -48 16 -102 60 -234 185 -88 84 -134 189 -114 258
11 37 140 176 185 199 28 14 58 19 122 19 46 0 113 7 147 16 95 24 140 16 198
-39 86 -81 191 -116 343 -117 117 0 112 29 -8 49 -86 14 -150 44 -174 83 -26
43 -25 47 10 55 17 3 30 9 30 14 0 5 -26 26 -57 45 -75 48 -103 73 -103 96 0
12 7 18 23 18 13 0 32 6 42 14 18 13 17 14 -11 32 -16 10 -35 26 -41 35 -7 10
-65 42 -130 73 -130 63 -231 126 -282 177 -37 37 -91 142 -91 176 0 21 9 53
16 53 1 0 40 -15 86 -34z m-1080 -203 c22 -15 77 -72 123 -127 45 -56 97 -114
114 -130 55 -53 36 -88 -59 -107 -33 -6 -65 -18 -72 -26 -22 -27 11 -35 124
-28 99 6 107 5 117 -14 17 -30 3 -50 -50 -73 -27 -11 -60 -33 -72 -47 -32 -39
-42 -43 -74 -29 -42 18 -132 76 -178 114 -191 159 -230 188 -317 229 -85 41
-101 42 -180 14 -48 -18 -56 -24 -46 -36 20 -24 46 -34 134 -48 80 -13 114
-26 114 -45 0 -15 -63 -29 -183 -41 -144 -14 -151 -10 -145 68 3 36 12 60 26
76 12 13 22 29 22 36 0 11 37 99 59 140 9 18 54 31 70 21 7 -4 11 -20 9 -36
-5 -45 25 -42 76 9 34 34 56 48 94 56 27 6 67 20 87 32 74 44 136 42 207 -8z
m1038 -161 c58 -5 116 -14 130 -22 48 -26 120 -84 120 -97 0 -7 -1 -13 -3 -13
-1 0 -34 7 -72 15 -83 17 -150 11 -219 -21 -27 -12 -54 -20 -61 -17 -14 5 -48
78 -59 126 -9 37 1 50 33 43 14 -4 73 -10 131 -14z m168 -198 c61 -43 -2 -80
-125 -72 -82 6 -117 24 -89 47 12 10 121 34 181 40 6 1 21 -6 33 -15z m-1346
-142 c114 -91 191 -139 262 -164 71 -24 195 -22 335 6 121 24 179 22 209 -7
14 -14 14 -18 -1 -41 -22 -33 -67 -189 -67 -231 0 -38 22 -60 71 -69 27 -5 52
-23 103 -76 36 -38 66 -74 66 -80 0 -6 -11 -15 -24 -21 -13 -6 -28 -21 -34
-34 -27 -59 -138 -103 -422 -169 -216 -50 -208 -49 -307 -37 -129 17 -195 52
-264 140 -30 38 -76 104 -103 147 -69 112 -97 155 -116 185 -31 45 -130 250
-149 308 -10 31 -21 80 -23 109 -7 69 7 78 129 87 50 3 104 10 120 15 15 4 48
9 73 9 41 0 53 -6 142 -77z m957 4 c14 -16 1 -29 -52 -51 -47 -19 -86 -19 -94
1 -12 31 31 52 123 63 6 0 17 -5 23 -13z m-419 -86 c0 -16 -7 -20 -33 -20 -19
0 -37 3 -40 7 -13 12 15 33 44 33 22 0 29 -5 29 -20z m549 -643 c86 -41 101
-61 50 -71 -17 -3 -28 -10 -25 -15 11 -18 103 -31 243 -34 90 -2 147 -7 154
-14 13 -13 32 -272 27 -358 -3 -49 -4 -50 -49 -66 -57 -22 -213 -49 -278 -49
-28 0 -53 6 -59 13 -12 14 -27 129 -41 307 -9 119 -31 181 -81 235 -23 24 -25
46 -8 63 15 15 7 16 67 -11z m-85 -193 c10 -25 7 -152 -3 -159 -5 -3 -12 -1
-16 4 -9 16 -18 138 -12 155 8 20 23 20 31 0z m-270 -89 c9 -9 20 -33 25 -53
26 -96 34 -133 49 -215 19 -103 20 -102 -73 -112 -69 -8 -341 10 -379 25 -15
5 -30 20 -36 32 -28 70 -60 198 -60 244 0 64 -11 60 190 69 80 3 163 10 185
14 62 13 82 12 99 -4z"/>
<path d="M8551 10099 c-89 -31 -161 -102 -145 -142 3 -8 14 -52 24 -98 10 -46
35 -127 55 -179 49 -127 76 -243 84 -370 5 -85 12 -116 34 -162 15 -31 27 -64
27 -73 0 -9 7 -29 15 -46 27 -50 75 -209 75 -244 0 -19 -5 -37 -10 -40 -6 -4
-43 -1 -83 6 -185 31 -341 -7 -439 -108 -31 -32 -33 -39 -34 -108 -1 -40 -4
-78 -8 -83 -4 -6 -43 -25 -89 -42 -45 -18 -98 -41 -118 -51 -39 -19 -109 -100
-139 -160 -52 -100 -63 -244 -30 -375 27 -107 45 -152 143 -349 46 -93 96
-195 110 -226 21 -43 38 -63 79 -90 124 -80 141 -124 133 -356 -7 -181 5 -250
44 -270 13 -6 80 -14 150 -18 69 -3 243 -13 386 -20 143 -8 346 -17 450 -21
184 -6 193 -5 278 20 82 24 143 36 329 67 43 7 97 22 120 33 l43 21 6 240 c4
160 10 248 18 265 7 14 35 41 63 60 59 40 94 80 120 135 11 22 26 51 33 64 8
14 17 54 20 90 4 37 11 84 16 107 4 22 9 168 10 325 2 403 14 609 44 762 14
71 34 145 44 165 10 20 21 48 24 62 3 14 32 65 63 115 56 87 58 93 70 195 7
58 20 137 29 175 9 39 19 130 22 202 6 127 5 137 -22 215 -34 101 -60 131
-138 158 -80 26 -241 27 -305 1 -129 -52 -182 -144 -199 -348 -5 -72 -31 -158
-78 -260 -8 -17 -15 -36 -15 -41 0 -22 -101 -276 -129 -325 -41 -73 -69 -95
-142 -117 -109 -33 -152 -23 -164 38 -30 143 -202 676 -256 788 -10 22 -19 44
-19 48 0 14 -102 240 -119 263 -40 54 -247 124 -366 122 -33 0 -84 -9 -114
-20z m279 -70 c68 -31 132 -85 156 -131 19 -36 73 -204 80 -250 5 -29 3 -38
-12 -46 -11 -5 -109 -11 -219 -13 l-200 -4 -46 94 c-57 115 -76 210 -57 285
28 106 150 133 298 65z m1554 -121 c91 -23 128 -101 107 -228 -6 -36 -11 -83
-11 -106 0 -22 -5 -45 -12 -52 -7 -7 -38 -12 -69 -12 -32 0 -60 -4 -64 -9 -6
-11 10 -16 72 -26 22 -4 49 -12 59 -20 17 -12 17 -18 7 -67 -43 -188 -53 -223
-70 -236 -14 -11 -44 -12 -138 -7 -118 6 -160 15 -260 53 l-50 18 2 47 c3 59
50 163 91 201 30 28 35 29 116 27 47 0 87 3 90 8 12 18 -27 34 -106 42 -44 4
-86 13 -91 18 -17 17 6 199 31 247 54 106 153 140 296 102z m-1278 -383 c27
-17 91 -147 100 -202 5 -35 3 -43 -15 -52 -29 -16 -26 -26 13 -49 30 -18 35
-27 41 -69 3 -26 15 -88 26 -138 10 -49 19 -107 19 -127 0 -43 2 -42 -185 -87
-152 -36 -192 -42 -235 -33 -32 7 -36 12 -51 67 -9 33 -31 96 -49 140 -17 44
-37 103 -45 130 -18 65 -12 69 113 84 222 27 215 60 -13 61 -55 0 -106 4 -114
9 -14 9 -70 162 -71 193 0 10 12 32 28 49 21 24 39 32 82 39 80 11 330 1 356
-15z m1060 -410 c207 -29 224 -34 224 -71 0 -53 -110 -298 -141 -315 -16 -8
-34 -5 -85 15 -65 26 -307 76 -369 76 -40 0 -65 8 -65 22 0 5 15 28 34 51 35
43 65 93 99 162 29 61 56 85 92 85 18 0 113 -11 211 -25z m-431 -341 c45 -21
82 -29 164 -35 156 -12 282 -49 325 -98 18 -19 18 -27 7 -98 -23 -150 -30
-239 -29 -356 0 -70 -4 -123 -10 -129 -16 -16 -272 128 -272 153 0 15 7 19 34
19 44 0 66 9 66 26 0 8 9 23 21 35 34 34 12 42 -82 29 -46 -7 -104 -16 -128
-20 -34 -6 -53 -4 -85 11 -43 20 -164 93 -180 109 -35 35 111 68 317 74 125 3
154 9 129 25 -17 10 -279 4 -386 -9 -114 -14 -153 -12 -244 10 -44 11 -125 29
-179 40 -130 27 -252 65 -283 89 -20 16 -22 22 -11 35 20 24 179 54 411 77
118 11 231 24 250 29 63 15 107 10 165 -16z m-1375 -124 c-36 -30 -60 -38 -60
-20 0 13 60 50 80 50 8 0 -1 -13 -20 -30z m362 -37 c79 -35 83 -42 55 -91 -30
-56 -60 -67 -138 -53 -73 13 -123 39 -127 68 -5 33 26 83 61 98 38 17 72 12
149 -22z m-422 -12 c0 -5 -6 -14 -14 -20 -16 -13 -32 2 -21 19 8 12 35 13 35
1z m829 -86 c95 -21 144 -38 148 -50 1 -5 -19 -36 -47 -68 -52 -61 -55 -81
-12 -92 15 -4 34 -12 42 -19 11 -9 24 -11 48 -4 38 10 42 33 7 42 -35 9 -31
30 10 52 29 16 39 16 68 6 18 -7 44 -12 57 -12 13 0 78 -35 144 -78 67 -43
150 -95 186 -114 153 -85 285 -160 297 -170 24 -20 14 -64 -27 -116 -34 -42
-38 -51 -25 -62 8 -7 34 -10 62 -8 l48 3 8 -75 c5 -41 6 -141 4 -221 -4 -143
-4 -147 -34 -190 -110 -159 -219 -197 -538 -185 -275 10 -328 23 -440 114 -66
53 -108 118 -126 198 -15 65 -3 103 56 181 151 200 139 193 230 123 80 -62
180 -111 241 -118 58 -6 57 11 -2 46 -75 44 -125 82 -120 91 3 4 35 2 72 -6
113 -23 110 21 -4 63 -96 35 -95 49 4 57 42 3 81 10 87 16 14 14 -33 31 -113
41 -70 8 -240 77 -367 149 -40 23 -88 42 -118 46 -100 13 -351 102 -445 158
-72 42 -123 101 -135 155 -10 46 12 50 68 12 71 -47 117 -59 240 -62 133 -2
168 11 225 79 36 43 39 45 82 40 25 -3 78 -13 119 -22z m-847 -149 c67 -30
163 -117 224 -204 26 -37 52 -68 56 -70 4 -2 8 -12 8 -23 0 -23 -30 -36 -113
-51 -45 -8 -57 -14 -55 -27 4 -22 80 -27 129 -7 63 25 82 21 113 -26 15 -22
25 -47 22 -54 -2 -6 -22 -17 -43 -24 -49 -16 -81 -46 -91 -84 -17 -65 -81 -40
-192 75 -54 55 -112 101 -205 160 -148 94 -179 106 -212 84 -35 -23 -53 -19
-53 13 0 29 55 126 68 120 4 -2 20 -10 36 -18 27 -14 29 -13 52 15 13 17 35
44 49 62 25 30 115 83 142 83 7 0 36 -11 65 -24z m453 -233 c26 -12 35 -23 33
-37 -3 -20 3 -21 109 -26 61 -3 115 -8 118 -12 14 -14 -4 -36 -33 -43 -44 -9
-84 -57 -87 -102 -3 -53 -3 -53 -24 -53 -34 0 -104 84 -145 174 -32 71 -36 89
-26 101 15 18 12 19 55 -2z m-748 -109 c71 -34 93 -48 84 -57 -8 -8 -34 -8
-96 0 -95 11 -125 29 -125 75 0 40 22 37 137 -18z m1113 -91 c0 -10 -16 -34
-35 -54 -42 -45 -79 -44 -89 2 -11 54 3 66 82 68 34 1 42 -2 42 -16z m-938
-32 c13 -5 41 -25 63 -46 160 -149 197 -167 344 -173 l103 -4 -7 -37 c-15 -76
-12 -96 16 -99 23 -3 30 4 54 53 15 31 44 74 65 96 32 34 42 39 82 39 54 0 74
-17 54 -46 -21 -31 -46 -115 -46 -155 0 -110 63 -260 130 -308 49 -35 73 -68
65 -89 -6 -16 -7 -16 -19 1 -16 20 -42 22 -76 4 -14 -8 -47 -26 -75 -40 -78
-41 -208 -70 -285 -64 -171 15 -267 28 -316 44 -79 25 -143 88 -200 198 -26
50 -77 147 -115 217 -75 140 -118 255 -126 334 -9 86 -12 84 136 84 71 0 140
-4 153 -9z m520 -113 c-9 -9 -15 -9 -24 0 -9 9 -7 12 12 12 19 0 21 -3 12 -12z
m1093 -752 c17 -12 20 -26 19 -113 0 -54 -6 -111 -13 -127 -10 -24 -9 -35 7
-65 36 -69 4 -101 -150 -148 -95 -29 -133 -36 -241 -40 -93 -4 -131 -2 -142 7
-12 10 -15 40 -15 149 0 75 -4 142 -9 150 -15 23 -41 -5 -41 -45 0 -18 -4 -35
-9 -38 -4 -3 -11 -47 -15 -98 -4 -60 -12 -98 -21 -108 -20 -19 -31 -7 -55 63
-16 44 -20 82 -20 176 0 66 -5 132 -10 147 -13 33 0 49 45 58 26 5 33 1 50
-26 28 -45 40 -44 54 2 15 50 56 67 79 32 19 -28 38 -28 77 3 29 21 44 25 136
28 249 7 255 7 274 -7z m-1301 -72 c41 -14 74 -16 220 -10 94 4 184 8 199 8
16 0 38 -8 49 -20 19 -18 22 -34 23 -131 2 -86 7 -123 25 -170 12 -34 20 -67
16 -76 -12 -33 -558 -10 -602 26 -8 7 -14 29 -14 55 0 23 -5 55 -12 71 -16 37
-18 125 -5 193 15 76 23 80 101 54z"/>
<path d="M13214 10110 c-65 -9 -150 -37 -161 -53 -5 -7 -20 -39 -33 -72 -20
-50 -24 -79 -25 -180 -1 -85 -7 -145 -22 -205 -12 -47 -24 -137 -27 -200 -13
-242 -70 -372 -202 -467 -66 -46 -103 -51 -156 -20 -83 49 -141 116 -734 833
-203 245 -243 278 -379 310 -81 19 -146 12 -247 -26 -55 -20 -118 -72 -118
-96 0 -45 105 -222 204 -344 60 -74 90 -114 112 -151 6 -10 18 -27 26 -36 21
-25 73 -127 100 -198 25 -67 38 -84 181 -238 55 -59 117 -133 137 -165 39 -60
66 -141 57 -167 -7 -18 -62 -20 -104 -4 -15 5 -64 10 -108 10 -93 1 -195 -29
-315 -90 -59 -30 -77 -44 -84 -67 -18 -63 -42 -98 -86 -124 -209 -127 -217
-133 -245 -183 -22 -40 -28 -63 -29 -121 -1 -69 1 -75 72 -221 41 -82 80 -163
87 -180 7 -16 54 -113 104 -215 88 -181 92 -187 166 -253 110 -100 133 -150
151 -331 7 -78 14 -152 14 -166 0 -34 18 -43 199 -107 86 -30 190 -67 231 -81
75 -27 76 -27 370 -27 278 0 492 13 600 36 118 25 246 66 322 103 l83 41 2 65
c6 147 54 400 83 435 6 7 37 33 68 56 31 24 71 55 88 69 17 14 53 43 80 65 75
61 151 140 179 186 15 22 40 48 57 57 16 10 62 38 101 64 156 104 185 128 206
172 11 24 34 64 51 88 17 23 41 59 54 78 13 20 79 87 146 150 67 63 188 180
269 259 80 78 157 149 171 156 14 7 92 32 174 55 144 43 219 79 233 116 11 30
-40 83 -117 122 l-75 37 -180 -1 c-193 0 -254 -11 -460 -80 -112 -37 -298
-135 -504 -265 -35 -22 -98 -59 -140 -81 -42 -23 -85 -47 -96 -55 -11 -7 -31
-13 -46 -13 -21 0 -30 9 -47 48 -47 101 -54 253 -23 466 11 72 25 172 31 221
6 50 16 119 21 155 13 84 13 355 -1 400 -5 19 -10 50 -10 68 0 41 -44 172 -76
230 -48 82 -102 115 -218 131 -84 12 -87 12 -162 1z m168 -62 c23 -7 59 -30
83 -54 34 -35 45 -55 58 -111 20 -81 40 -213 35 -219 -3 -2 -103 -5 -223 -7
-181 -2 -221 0 -233 12 -24 24 -12 224 16 276 12 22 22 45 22 51 0 49 146 81
242 52z m-1861 -86 c74 -42 339 -317 339 -351 0 -11 -42 -28 -115 -45 -33 -7
-93 -25 -134 -40 -41 -14 -82 -26 -91 -26 -43 0 -254 271 -285 367 -16 48 -16
55 -2 77 41 63 194 72 288 18z m1997 -372 c43 -16 49 -33 57 -167 l7 -110 -32
-11 c-36 -13 -438 3 -477 19 -21 8 -23 16 -23 72 0 115 37 184 110 206 46 14
315 7 358 -9z m-1530 -129 c61 -64 76 -81 135 -151 58 -70 60 -69 -102 -115
-52 -15 -126 -42 -165 -61 -88 -43 -109 -39 -161 26 -45 57 -53 70 -101 173
-41 87 -39 97 26 125 57 25 211 60 263 61 46 1 51 -1 105 -58z m1365 -226
c107 -13 179 -34 193 -56 5 -9 -35 -176 -59 -243 -8 -21 -20 -42 -27 -46 -7
-4 -42 1 -79 11 -65 19 -295 49 -372 49 -46 0 -58 18 -35 52 9 13 21 41 27 63
32 121 42 146 62 157 18 9 77 19 157 27 9 0 68 -6 133 -14z m-1111 -104 c14
-11 40 -45 59 -76 19 -31 49 -76 67 -100 56 -76 57 -74 -138 -162 -41 -18 -82
-37 -90 -42 -9 -5 -30 -12 -48 -16 -31 -6 -37 -3 -108 72 -42 43 -98 101 -125
128 -27 28 -49 59 -49 70 0 42 118 98 254 121 50 9 93 18 95 20 11 11 61 2 83
-15z m754 -256 c276 -31 435 -66 475 -106 16 -16 19 -33 19 -128 0 -102 -2
-111 -22 -125 -12 -9 -34 -16 -48 -16 -39 0 -257 -30 -335 -46 -93 -20 -142
-46 -363 -195 -245 -166 -224 -156 -280 -127 -29 15 -48 32 -50 44 -3 18 11
25 110 53 123 36 158 50 158 63 0 13 -49 9 -145 -12 -49 -11 -122 -23 -160
-26 -68 -6 -71 -6 -115 28 -25 19 -46 42 -48 52 -7 35 94 116 293 236 66 40
123 77 127 84 15 24 -12 30 -63 13 -36 -11 -58 -13 -70 -7 -32 18 -65 11 -145
-29 -54 -27 -101 -61 -146 -106 -56 -55 -70 -64 -86 -56 -25 13 -38 31 -45 62
-8 34 19 58 98 89 33 13 101 41 150 64 212 94 492 205 521 205 17 1 94 -6 170
-14z m2054 -45 c85 -16 170 -66 142 -84 -4 -2 -48 -12 -97 -21 -143 -27 -217
-68 -346 -194 -102 -99 -113 -106 -157 -111 -42 -5 -49 -9 -64 -42 -10 -20
-26 -42 -37 -48 -11 -5 -22 -22 -26 -37 -4 -20 -37 -52 -110 -111 -64 -50
-112 -97 -125 -120 -11 -20 -55 -88 -97 -151 -57 -83 -92 -124 -128 -150 -45
-31 -226 -180 -250 -205 -5 -6 -39 -36 -75 -66 -241 -206 -410 -275 -660 -273
-226 2 -446 42 -504 92 -27 23 -113 206 -126 269 -18 81 -14 85 78 77 75 -6
79 -5 157 33 76 37 145 96 145 125 0 45 -25 90 -70 128 -28 23 -50 47 -50 54
0 14 70 60 158 104 146 73 341 118 478 109 60 -4 68 -7 104 -43 21 -22 60 -80
85 -130 53 -102 85 -140 134 -161 30 -13 37 -13 49 0 13 13 9 21 -32 68 -48
54 -101 170 -94 204 2 13 13 20 34 22 27 3 39 -6 104 -79 75 -83 121 -119 153
-119 31 0 19 45 -35 125 -86 126 -90 133 -81 148 34 59 152 142 350 246 68 37
57 38 181 -14 67 -28 117 -30 117 -5 0 8 -28 34 -62 58 -92 64 -85 81 57 152
137 69 284 110 520 144 122 18 118 18 180 6z m-3216 -261 c45 -12 80 -47 141
-139 23 -36 71 -90 106 -121 35 -31 101 -89 147 -129 95 -83 102 -105 40 -113
-52 -6 -220 -85 -211 -99 9 -16 104 -3 162 22 28 13 61 36 72 51 28 40 56 37
125 -17 97 -75 97 -84 2 -84 -91 0 -152 -27 -172 -75 -25 -58 -14 -62 -241 92
-22 15 -157 104 -300 199 -143 95 -272 185 -287 199 -39 36 -41 75 -6 112 22
24 131 80 193 99 50 16 177 17 229 3z m1677 -145 c26 -23 49 -77 49 -114 0
-52 -12 -55 -274 -56 l-241 -1 -124 -42 c-139 -47 -179 -66 -261 -122 -94 -64
-108 -50 -27 27 62 59 121 105 168 131 19 10 52 30 74 44 98 62 256 118 390
138 39 6 81 13 95 15 55 9 130 -1 151 -20z m-2118 -156 c23 -12 200 -152 255
-203 19 -16 50 -41 71 -55 108 -73 113 -84 54 -110 -49 -21 -83 -47 -83 -62 0
-17 72 -7 135 18 l65 26 52 -30 c55 -31 71 -60 47 -88 -9 -12 -9 -23 1 -55 22
-64 8 -68 -111 -29 -119 39 -194 76 -480 237 -83 46 -106 54 -165 59 -88 7
-123 21 -135 52 -12 32 3 50 44 54 27 3 34 9 45 43 16 48 36 71 82 95 19 10
43 28 52 39 20 24 39 26 71 9z m-81 -399 c34 -17 74 -39 88 -49 14 -10 106
-58 205 -108 286 -143 446 -180 575 -130 30 11 73 21 95 22 36 1 40 -2 43 -25
2 -15 -4 -54 -12 -87 -9 -33 -16 -92 -16 -131 0 -63 3 -74 25 -93 13 -11 22
-25 19 -30 -8 -13 -101 -58 -164 -80 -72 -25 -226 -48 -321 -48 -142 0 -312
43 -369 93 -46 40 -130 182 -228 382 -13 28 -29 56 -35 63 -14 18 -97 211 -97
228 0 44 98 41 192 -7z m1255 -25 c15 -24 15 -29 2 -52 -18 -32 -95 -57 -145
-48 -33 7 -68 41 -58 58 10 15 128 66 156 67 19 1 33 -7 45 -25z m-389 -146
c2 -12 -6 -19 -33 -24 -40 -7 -61 5 -51 31 8 23 80 17 84 -7z m240 -390 c11
-13 23 -35 27 -50 5 -21 2 -29 -15 -38 -36 -19 -67 1 -75 49 -4 22 -4 45 0 51
11 17 40 11 63 -12z m272 -198 c52 -11 151 -23 220 -27 l125 -8 -2 -78 c-2
-43 -9 -104 -17 -135 -8 -31 -20 -99 -27 -149 -6 -51 -17 -98 -24 -103 -22
-18 -147 -40 -231 -40 -95 0 -102 5 -132 95 -34 99 -42 159 -42 296 0 118 8
169 28 169 3 0 49 -9 102 -20z m-505 -69 c17 -4 40 -3 53 3 12 5 25 6 28 3 4
-3 -2 -46 -11 -94 -13 -66 -16 -112 -11 -185 l6 -97 -30 -16 c-20 -11 -33 -26
-37 -46 -8 -43 -29 -50 -115 -39 -156 19 -280 63 -337 119 -36 35 -38 39 -55
165 -11 85 -13 133 -7 139 5 5 43 9 83 8 40 -1 109 5 153 14 44 8 98 15 120
16 22 0 49 4 60 9 23 10 58 10 100 1z m282 -192 c3 -101 6 -206 7 -234 l1 -50
-38 -3 c-51 -4 -69 11 -56 46 20 53 30 129 30 231 -1 107 22 222 40 204 5 -5
12 -92 16 -194z m-182 -259 c3 -5 -3 -10 -14 -10 -12 0 -21 5 -21 10 0 6 6 10
14 10 8 0 18 -4 21 -10z"/>
<path d="M17700 10114 c-56 -11 -129 -47 -161 -80 -30 -31 -34 -41 -33 -87 1
-29 10 -83 20 -122 20 -77 22 -211 4 -305 -6 -30 -13 -173 -17 -317 -4 -202
-9 -265 -19 -274 -11 -9 -16 -5 -24 16 -5 14 -10 33 -10 40 0 8 -9 34 -19 57
-10 24 -29 77 -40 118 -34 117 -47 157 -86 270 -21 58 -43 128 -50 155 -36
140 -59 202 -83 228 -65 69 -236 113 -345 88 -69 -15 -165 -76 -174 -110 -3
-14 -1 -48 6 -75 6 -28 18 -98 26 -156 7 -58 18 -117 23 -130 5 -14 12 -47 16
-75 14 -93 66 -350 80 -390 8 -22 22 -71 31 -108 9 -37 30 -100 46 -140 62
-146 62 -158 4 -183 -33 -13 -39 -13 -78 5 -68 31 -150 90 -244 176 -125 115
-165 155 -198 200 -16 22 -45 59 -65 81 -19 23 -46 58 -60 78 -63 93 -156 148
-282 168 -86 13 -149 4 -224 -33 -59 -28 -69 -59 -55 -154 10 -72 39 -142 85
-210 74 -108 315 -353 529 -538 69 -59 99 -105 112 -167 3 -19 15 -57 25 -85
10 -27 31 -90 46 -140 44 -144 101 -303 158 -440 21 -49 64 -131 86 -165 9
-14 34 -51 55 -82 32 -49 49 -63 113 -95 41 -21 87 -52 102 -70 37 -42 52
-111 39 -188 -14 -93 -22 -220 -15 -248 5 -20 20 -30 73 -50 172 -64 351 -93
628 -102 156 -5 221 -3 365 14 180 21 208 26 370 61 95 20 295 81 331 100 23
13 24 32 4 113 -43 183 -57 268 -50 309 14 79 49 141 113 198 54 50 64 65 102
160 116 288 124 325 124 565 0 158 -3 215 -17 270 -19 76 -17 98 33 280 10 39
31 120 45 180 14 61 35 139 45 175 10 36 21 83 25 105 3 22 12 63 20 90 8 28
19 70 25 95 6 25 19 74 30 110 55 192 60 220 60 322 -1 97 -3 107 -33 163 -18
34 -45 67 -62 77 -130 75 -409 57 -489 -31 -31 -34 -86 -229 -86 -306 0 -43
-50 -204 -90 -290 -57 -120 -140 -312 -140 -322 0 -5 -14 -25 -30 -45 -23 -28
-42 -39 -81 -47 -118 -26 -159 -8 -159 70 0 28 7 63 15 78 29 57 23 424 -9
589 -9 42 -22 111 -31 152 -43 218 -69 315 -92 342 -34 39 -113 61 -228 64
-60 1 -121 0 -135 -2z m201 -65 c53 -18 77 -46 84 -98 3 -25 12 -75 20 -111
23 -109 24 -127 12 -143 -10 -13 -41 -16 -177 -17 -91 -1 -170 -2 -177 -1 -22
2 -56 130 -56 216 -1 108 17 136 98 156 48 11 159 10 196 -2z m1204 -215 c65
-9 103 -45 126 -120 10 -32 19 -74 19 -93 0 -57 -69 -329 -110 -431 -10 -25
-21 -60 -25 -78 -4 -18 -17 -40 -31 -48 -21 -14 -28 -14 -71 0 -26 9 -108 22
-181 30 -74 7 -138 18 -143 23 -13 13 26 179 51 221 41 66 69 72 268 57 97 -8
102 -7 102 11 0 17 -13 23 -82 37 -46 9 -115 17 -154 17 -96 0 -97 3 -83 126
15 135 46 194 119 226 36 16 123 37 136 33 6 -2 33 -7 59 -11z m-2108 -6 c30
-7 60 -25 88 -52 37 -36 47 -57 80 -159 29 -89 36 -123 28 -135 -13 -22 -79
-38 -220 -53 l-116 -12 -24 29 c-57 71 -100 261 -74 327 22 56 133 82 238 55z
m1029 -209 c6 -5 16 -41 23 -81 24 -138 32 -183 36 -198 12 -41 -4 -44 -216
-41 -115 1 -212 7 -223 13 -17 9 -18 17 -12 87 18 188 17 185 58 198 90 30
175 42 248 36 41 -3 80 -9 86 -14z m-828 -228 c12 -7 30 -64 67 -208 15 -59 7
-73 -37 -73 -16 0 -85 -9 -155 -20 -69 -11 -135 -18 -145 -14 -28 9 -45 57
-53 149 -6 67 -5 83 9 94 8 7 62 28 118 47 101 33 170 42 196 25z m863 -177
c9 -3 19 -13 22 -23 8 -32 -14 -198 -37 -284 l-23 -82 -84 1 c-49 1 -102 8
-128 18 -41 15 -48 15 -93 0 -27 -9 -52 -13 -55 -10 -9 9 -36 235 -36 298 0
84 5 87 141 91 121 4 265 0 293 -9z m-2053 -41 c39 -11 65 -27 101 -63 47 -46
111 -147 111 -173 0 -16 -192 -98 -245 -104 -34 -4 -46 0 -73 21 -50 43 -113
167 -119 234 -6 68 9 88 78 101 47 9 65 7 147 -16z m1320 -151 c23 -23 84
-195 80 -224 -3 -21 -10 -24 -78 -30 -93 -8 -151 -26 -214 -66 -28 -18 -57
-32 -66 -32 -40 0 -99 106 -121 218 -11 53 -11 64 1 77 13 12 296 71 358 74
12 1 30 -7 40 -17z m1533 -11 c120 -25 169 -42 182 -62 8 -12 1 -42 -28 -115
-49 -127 -51 -129 -95 -104 -113 63 -200 90 -286 90 -65 0 -84 7 -84 31 0 21
55 135 78 162 21 23 112 23 233 -2z m-2539 -193 c21 -24 46 -55 54 -70 13 -26
13 -28 -8 -42 -13 -8 -65 -31 -117 -51 -82 -32 -97 -35 -122 -25 -38 16 -109
94 -109 120 0 32 162 108 234 109 21 1 38 -10 68 -41z m2293 -78 c140 -17 208
-34 260 -65 64 -37 75 -58 65 -125 -5 -30 -9 -78 -9 -107 -1 -82 -4 -83 -273
-83 l-227 0 -146 76 c-146 76 -196 92 -370 123 -175 32 -224 44 -287 73 -38
17 -68 36 -68 43 0 30 51 50 174 68 103 16 746 13 881 -3z m-1207 -67 c60 -27
92 -53 92 -74 0 -15 -7 -19 -36 -19 -84 0 -164 34 -164 70 0 41 47 51 108 23z
m-835 -62 c25 -17 62 -52 83 -76 l37 -46 -33 -34 c-43 -44 -159 -105 -200
-105 -25 0 -50 17 -130 88 -55 48 -100 93 -100 99 0 18 64 56 145 87 88 33
136 30 198 -13z m715 -48 c86 -41 107 -47 179 -51 59 -3 102 1 152 13 60 16
76 17 132 6 82 -17 129 -36 129 -55 0 -8 -15 -26 -32 -41 -32 -25 -32 -26 -14
-40 11 -8 32 -15 46 -15 15 0 35 -9 45 -20 27 -30 79 -26 137 10 57 36 84 37
135 9 21 -12 126 -66 233 -122 208 -106 337 -181 358 -206 18 -22 15 -55 -9
-85 -29 -36 -16 -50 41 -42 45 6 47 5 81 -36 25 -32 33 -52 32 -78 -1 -39 -59
-233 -78 -265 -7 -11 -16 -31 -20 -45 -12 -39 -127 -230 -144 -240 -31 -16
-159 -31 -316 -37 -173 -6 -402 15 -453 41 -70 36 -213 242 -232 332 -14 65
-7 89 61 226 77 156 97 186 128 193 33 7 98 -16 159 -57 65 -45 123 -68 170
-68 23 0 42 4 42 8 0 4 -17 18 -37 29 l-38 22 28 10 c16 6 42 11 58 11 27 0
50 23 36 36 -2 3 -58 14 -123 25 -124 21 -309 77 -362 109 -20 13 -32 28 -34
47 l-3 28 -86 -4 c-84 -3 -86 -3 -199 49 -132 60 -177 87 -229 138 -50 48 -95
143 -86 183 4 16 9 29 11 29 3 0 48 -21 102 -47z m-202 -77 c16 -18 48 -58 72
-89 50 -66 107 -115 179 -152 28 -14 57 -32 63 -40 14 -17 5 -20 -145 -40
-200 -27 -370 -71 -584 -150 -53 -19 -64 -12 -106 72 -33 63 -39 137 -17 190
15 35 50 55 227 128 61 25 137 61 170 79 78 45 105 45 141 2z m1809 -197 c21
-21 42 -156 27 -171 -8 -8 -52 10 -159 64 -81 41 -155 77 -163 80 -12 5 -13 8
-2 19 28 30 270 36 297 8z m-1204 -180 c30 -16 19 -30 -52 -68 -111 -59 -221
-137 -300 -213 -41 -40 -95 -89 -119 -108 -54 -42 -38 -50 42 -22 70 25 188
105 253 171 49 51 85 65 85 34 0 -9 -11 -28 -25 -42 -47 -50 -208 -265 -209
-281 -2 -31 39 -20 94 25 30 25 59 44 65 42 11 -4 18 -37 34 -157 19 -140 77
-290 112 -290 5 0 15 14 20 30 6 17 16 30 22 30 22 0 137 -84 137 -101 0 -18
-39 -33 -63 -24 -8 3 -65 -6 -128 -20 -224 -50 -448 -44 -576 16 -64 30 -160
124 -254 250 -45 59 -118 206 -142 284 -32 104 -48 267 -27 280 22 14 514 136
621 155 166 29 365 33 410 9z m387 -994 c35 -18 183 -22 303 -9 34 4 64 2 77
-5 19 -10 20 -17 15 -120 -5 -89 -3 -117 11 -151 14 -35 15 -49 5 -79 -6 -20
-15 -40 -20 -45 -5 -6 -9 -18 -9 -28 0 -25 -51 -54 -145 -82 -130 -39 -170
-46 -249 -46 -103 0 -102 -3 -86 216 14 188 9 262 -21 320 -14 29 -16 40 -6
46 17 12 85 2 125 -17z m-474 -126 c14 -7 28 -19 32 -28 4 -9 9 -93 12 -186 5
-202 6 -201 -93 -198 -81 3 -300 39 -334 56 l-26 13 3 139 c2 103 6 144 16
154 8 8 50 17 98 22 120 11 240 28 246 34 8 8 19 6 46 -6z m316 -85 c9 -23 8
-44 -7 -96 -7 -26 -32 -22 -43 8 -6 14 -10 45 -10 70 0 40 2 44 25 44 18 0 28
-7 35 -26z m-50 -307 c0 -31 -18 -47 -52 -47 -39 0 -36 25 5 50 41 25 47 25
47 -3z"/>
<path d="M5110 10015 c-22 -19 -55 -36 -73 -39 -18 -3 -56 -8 -86 -13 -56 -8
-79 -28 -68 -57 5 -13 22 -16 92 -16 132 0 125 10 125 -195 0 -128 -3 -176
-12 -182 -7 -4 -53 -10 -102 -13 -93 -5 -117 -18 -103 -54 6 -14 36 -16 282
-16 273 0 315 5 315 34 0 22 -48 36 -123 36 -44 0 -78 5 -85 12 -9 9 -12 80
-12 259 0 278 0 279 -70 279 -29 0 -48 -8 -80 -35z"/>
<path d="M7752 9540 c-114 -15 -151 -40 -119 -83 12 -18 17 -17 114 2 165 34
311 25 376 -23 22 -16 27 -27 27 -65 0 -40 -5 -49 -45 -87 -60 -55 -133 -98
-343 -201 l-173 -85 3 -36 c3 -32 7 -37 36 -43 51 -10 693 -2 704 9 6 6 8 18
6 28 -3 18 -20 19 -268 24 -146 3 -266 7 -267 8 -13 10 18 30 150 95 169 84
292 160 325 202 28 35 37 88 24 134 -13 42 -69 83 -147 107 -61 19 -299 27
-403 14z"/>
<path d="M2202 8985 c-70 -22 -222 -112 -312 -185 -317 -259 -399 -316 -575
-400 -270 -129 -290 -141 -330 -202 -17 -25 -25 -52 -25 -80 0 -52 -28 -297
-36 -309 -3 -5 -11 -46 -19 -91 -19 -108 -86 -413 -123 -563 -10 -38 -41 -180
-76 -345 -48 -228 -73 -399 -81 -565 -5 -92 -14 -143 -37 -218 -35 -114 -33
-155 10 -185 43 -31 298 -154 402 -194 206 -80 328 -94 473 -57 107 27 294
117 345 166 l39 38 7 116 c6 123 40 266 76 325 22 34 69 58 145 73 76 15 135
43 190 93 61 54 488 397 613 493 22 17 104 83 183 148 79 65 168 137 198 160
166 131 248 202 262 230 9 18 31 77 49 132 18 55 40 123 51 150 10 28 22 66
28 85 6 19 24 73 41 120 43 116 47 143 22 177 -27 39 -124 87 -156 79 -14 -3
-49 -1 -78 5 -76 16 -133 77 -178 189 -50 124 -77 168 -147 237 -165 162 -525
337 -779 378 -111 18 -126 18 -182 0z m306 -115 c93 -31 182 -75 182 -91 0 -5
-5 -9 -11 -9 -11 0 -91 31 -155 61 -23 10 -46 19 -52 19 -13 0 -92 40 -92 46
0 11 47 1 128 -26z m-250 -54 c164 -50 221 -70 328 -111 178 -69 323 -145 340
-176 7 -14 27 -32 44 -39 56 -23 107 -107 82 -132 -8 -8 -21 -6 -46 7 -33 18
-159 115 -181 139 -52 58 -121 75 -385 96 -74 6 -157 15 -183 20 -26 6 -87 10
-135 11 l-88 1 -108 -79 c-59 -43 -165 -118 -235 -168 -70 -49 -161 -115 -202
-146 -41 -31 -126 -93 -189 -138 -108 -78 -170 -143 -170 -180 0 -19 -29 -51
-47 -51 -16 0 -17 29 -1 104 11 57 13 59 122 153 169 145 206 176 271 228 90
72 389 319 395 325 3 3 28 24 56 48 51 42 77 51 89 32 15 -24 102 7 137 49 21
25 43 26 106 7z m812 -216 c62 -49 104 -102 138 -173 34 -70 39 -120 12 -124
-15 -3 -37 23 -92 112 -58 93 -83 129 -115 164 -18 20 -33 42 -33 50 0 20 47
5 90 -29z m-810 -50 c25 -5 101 -14 170 -19 161 -13 202 -26 215 -68 6 -18 14
-35 17 -39 4 -3 30 2 58 12 49 18 52 18 86 -1 19 -10 87 -68 151 -129 64 -61
124 -117 134 -124 33 -23 24 -59 -23 -89 -36 -23 -54 -28 -108 -28 -95 1 -183
51 -317 181 -35 33 -43 48 -43 77 0 70 -46 82 -102 26 -33 -32 -87 -44 -195
-42 -58 2 -85 8 -134 32 -34 17 -66 28 -71 25 -17 -11 -7 -44 22 -74 17 -17
30 -37 30 -44 0 -7 -13 -33 -30 -57 -28 -43 -96 -89 -131 -89 -20 0 -79 -38
-79 -51 0 -6 11 -24 25 -41 14 -16 25 -36 25 -44 0 -7 11 -21 24 -29 35 -23
37 -36 15 -106 -25 -82 -51 -106 -126 -114 -111 -11 -123 -15 -123 -34 0 -28
44 -62 89 -68 72 -10 76 -21 73 -213 -3 -158 -2 -171 20 -221 21 -49 23 -69
23 -204 0 -219 -33 -325 -144 -469 -111 -143 -153 -175 -274 -210 -63 -18
-238 -38 -312 -35 -27 1 -58 1 -67 0 -26 -2 -22 -37 5 -56 l22 -16 -27 -20
c-16 -12 -25 -26 -22 -34 7 -18 65 -35 120 -35 56 0 66 -15 55 -76 -5 -27 -13
-58 -17 -69 -5 -11 -17 -69 -29 -130 l-20 -110 -40 1 c-40 2 -193 51 -290 94
-27 12 -88 35 -135 52 -47 17 -91 35 -97 40 -20 16 -15 68 10 123 38 82 51
154 39 211 -11 50 4 144 59 364 17 69 29 128 63 300 51 259 92 415 131 495 35
73 103 218 163 345 19 41 47 102 61 135 34 80 53 103 131 155 36 24 112 80
170 125 58 44 143 107 190 139 47 32 112 81 146 107 71 56 99 69 134 58 45
-13 56 -9 101 34 71 70 88 76 179 57z m-1090 -316 c0 -12 -51 -54 -66 -54 -21
0 -17 12 14 37 26 21 52 30 52 17z m1395 -54 c26 -11 91 -54 146 -95 78 -59
115 -79 172 -96 73 -22 101 -39 119 -72 7 -14 0 -34 -34 -88 -38 -61 -60 -83
-180 -174 -137 -104 -190 -130 -237 -118 -49 12 -346 200 -389 246 l-24 25 27
58 c87 195 158 285 250 318 56 20 96 19 150 -4z m1043 -97 c51 -38 39 -89 -69
-303 -49 -98 -63 -135 -69 -187 -4 -48 -12 -69 -26 -82 -12 -9 -33 -38 -49
-66 -51 -89 -194 -213 -405 -348 -70 -45 -97 -58 -115 -53 -36 9 -44 51 -15
81 l22 23 -32 73 c-18 41 -37 80 -43 87 -20 25 -77 146 -77 163 0 21 146 130
187 141 25 7 35 -1 116 -87 93 -99 149 -135 209 -135 38 0 74 29 65 54 -3 8
-23 20 -44 27 -106 34 -243 164 -243 229 0 38 47 127 80 150 16 12 44 25 62
31 18 6 65 26 105 45 39 19 82 34 94 34 28 0 99 75 99 105 0 11 6 27 13 34 17
18 102 8 135 -16z m-400 -39 c12 -8 22 -21 22 -29 0 -41 -110 -63 -129 -26
-11 20 0 41 34 59 28 16 47 15 73 -4z m-996 -419 c40 -24 105 -64 145 -87 115
-69 111 -94 -13 -84 -96 7 -110 -2 -68 -45 l27 -29 -36 -15 c-29 -12 -37 -21
-37 -40 0 -26 10 -30 60 -26 57 4 197 34 217 47 43 27 78 18 107 -26 15 -23
31 -51 36 -63 5 -12 23 -44 40 -72 46 -75 90 -175 90 -201 0 -25 -42 -68 -245
-250 -151 -136 -228 -190 -361 -255 -87 -43 -132 -59 -162 -59 -22 0 -43 4
-47 9 -3 5 15 26 39 46 70 57 86 110 99 337 l10 187 -29 42 -29 42 0 256 c0
251 0 257 23 294 14 21 32 37 42 37 10 0 51 -20 92 -45z m-657 -1602 c-3 -32
-17 -105 -31 -163 -14 -58 -27 -115 -29 -127 -3 -14 -15 -25 -31 -29 -41 -11
-48 6 -31 78 9 34 19 83 22 108 6 37 23 97 50 178 2 6 16 12 31 12 26 0 26 0
19 -57z m175 -55 c0 -74 -40 -168 -72 -168 -22 0 -25 47 -5 88 8 15 20 50 27
77 13 47 24 64 43 65 4 0 7 -28 7 -62z"/>
<path d="M15925 7933 c-21 -6 -31 -11 -230 -148 -71 -49 -164 -112 -205 -141
-69 -47 -75 -54 -78 -90 -5 -62 2 -64 253 -64 159 0 224 -3 233 -12 7 -7 12
-40 12 -79 0 -52 4 -68 16 -73 28 -11 120 -6 132 6 7 7 12 39 12 74 0 38 5 66
13 72 7 6 37 12 66 14 57 3 80 21 68 52 -5 12 -20 16 -65 16 -32 0 -63 5 -70
12 -8 8 -12 63 -12 180 l0 168 -26 10 c-26 10 -84 11 -119 3z m-31 -149 c13
-5 16 -24 16 -105 0 -87 -2 -99 -19 -109 -22 -11 -286 -13 -314 -1 -18 6 -18
7 0 22 10 9 73 53 141 99 67 45 125 86 128 91 6 10 26 12 48 3z"/>
<path d="M14210 7313 c-180 -9 -267 -36 -258 -81 4 -24 46 -26 130 -7 85 19
242 22 295 5 51 -17 83 -48 83 -80 0 -51 -72 -89 -187 -97 -75 -6 -97 -18 -91
-50 3 -15 18 -19 99 -25 146 -10 209 -48 209 -123 0 -33 -43 -80 -92 -100 -69
-28 -214 -31 -335 -6 -111 23 -133 21 -133 -14 0 -35 21 -45 122 -60 263 -40
497 5 570 110 61 89 11 179 -121 215 -22 6 -41 14 -41 19 0 4 23 18 51 31 70
33 113 83 105 123 -8 38 -39 73 -89 98 -34 18 -211 51 -247 47 -8 -1 -40 -3
-70 -5z"/>
<path d="M12405 5424 c-87 -18 -161 -54 -205 -99 -25 -26 -34 -45 -37 -82 -5
-42 -1 -53 22 -81 14 -17 49 -44 76 -58 27 -15 49 -31 49 -35 0 -11 -50 -49
-64 -49 -39 0 -126 -111 -126 -160 0 -28 34 -94 63 -121 121 -115 461 -140
651 -49 74 36 86 45 120 94 55 82 23 167 -85 225 -81 44 -89 56 -49 78 50 27
89 62 105 94 18 34 19 96 2 126 -58 103 -312 160 -522 117z m264 -91 c58 -18
111 -70 111 -106 0 -35 -55 -102 -100 -122 -41 -18 -43 -18 -133 4 -190 47
-261 116 -189 183 58 56 206 75 311 41z m-71 -328 c182 -47 246 -113 192 -200
-34 -55 -105 -79 -230 -80 -96 0 -110 3 -163 29 -86 42 -113 96 -86 174 10 28
59 76 99 94 21 11 113 2 188 -17z"/>
<path d="M6612 4984 c-26 -18 -27 -27 -6 -48 13 -14 54 -16 294 -16 260 0 330
-6 330 -28 0 -5 -10 -20 -21 -33 -12 -13 -33 -40 -48 -59 -21 -28 -308 -376
-407 -494 -39 -45 -29 -60 40 -64 33 -2 72 2 87 9 16 6 54 43 86 83 32 39 73
89 93 111 19 22 46 56 60 74 14 19 59 76 100 127 197 242 200 247 200 299 0
55 1 55 -408 55 -326 0 -381 -2 -400 -16z"/>
<path d="M3815 4961 c-133 -38 -175 -88 -175 -207 0 -39 6 -94 14 -124 8 -30
17 -84 21 -120 3 -36 17 -130 30 -210 14 -80 29 -185 35 -235 6 -49 17 -112
25 -140 7 -27 16 -84 19 -125 3 -41 13 -106 21 -145 19 -90 45 -263 45 -297 0
-31 -13 -42 -38 -33 -18 5 -132 227 -132 255 0 7 -11 33 -24 59 -13 25 -40 80
-60 121 -49 100 -88 174 -102 191 -6 8 -30 50 -54 94 -23 44 -45 87 -50 95
-22 39 -70 150 -70 162 0 7 -13 40 -29 73 -29 63 -101 135 -203 203 -131 89
-312 74 -401 -33 -36 -42 -37 -47 -37 -120 0 -88 51 -339 81 -397 10 -20 19
-44 19 -53 0 -9 11 -37 24 -63 13 -26 26 -60 30 -77 4 -16 52 -121 107 -233
54 -111 99 -206 99 -211 0 -4 9 -20 21 -35 35 -45 18 -59 -139 -118 -122 -44
-182 -124 -190 -252 -6 -109 39 -439 77 -561 46 -145 80 -242 111 -315 45
-109 206 -431 240 -482 16 -23 30 -47 30 -51 0 -4 19 -40 43 -79 43 -74 80
-116 158 -179 28 -24 56 -60 79 -105 33 -67 34 -72 32 -172 -1 -57 -6 -131
-12 -165 -16 -101 -13 -181 8 -200 20 -18 114 -44 385 -107 368 -84 475 -88
862 -31 279 41 567 128 614 184 10 13 8 46 -8 174 -11 87 -17 174 -15 193 15
118 29 188 40 210 7 14 42 54 79 89 36 35 65 68 65 73 0 6 9 22 19 36 27 39
54 154 48 210 -16 154 -29 261 -38 292 -23 89 -2 263 42 338 24 41 24 69 0
129 -39 101 -53 200 -48 348 7 215 38 404 103 630 8 28 21 95 29 150 8 55 22
129 31 165 22 89 41 294 37 402 -3 110 -28 257 -53 318 -10 25 -21 57 -24 72
-8 36 -59 110 -98 143 -59 50 -178 95 -251 95 -50 0 -165 -28 -212 -51 -42
-21 -95 -85 -95 -114 0 -9 -6 -43 -14 -74 -9 -34 -17 -137 -21 -261 -6 -223
-23 -338 -55 -392 -20 -35 -80 -284 -80 -335 0 -14 -12 -52 -26 -84 -31 -69
-71 -99 -132 -99 -33 0 -44 5 -60 28 -30 42 -52 148 -52 252 0 190 -31 417
-60 435 -12 8 -65 204 -96 355 -33 163 -61 265 -88 321 -31 67 -96 143 -140
166 -86 45 -232 55 -341 24z m262 -71 c24 -10 58 -31 77 -45 29 -22 35 -34 41
-78 4 -29 17 -106 30 -172 35 -183 34 -176 15 -195 -15 -15 -43 -18 -181 -22
-191 -6 -208 -2 -225 58 -7 23 -17 51 -24 63 -21 40 -42 202 -36 275 8 82 20
99 85 120 90 29 144 28 218 -4z m1293 -203 c83 -42 144 -155 161 -297 13 -109
5 -145 -34 -152 -13 -3 -109 -1 -213 4 -238 12 -236 11 -229 111 14 176 25
226 65 276 72 91 149 109 250 58z m-2369 -129 c76 -26 100 -54 176 -207 79
-159 100 -220 84 -249 -11 -20 -286 -122 -329 -122 -27 0 -56 43 -77 114 -8
27 -19 54 -24 60 -21 27 -71 196 -71 241 0 67 32 130 79 155 41 22 112 25 162
8z m1269 -251 c15 -7 26 -23 28 -37 2 -14 14 -61 27 -105 36 -120 40 -149 20
-168 -9 -10 -22 -17 -28 -17 -13 0 -71 -9 -264 -39 -73 -11 -139 -18 -147 -15
-18 7 -21 17 -37 107 -12 72 1 180 25 211 6 8 62 26 126 40 63 13 124 27 135
29 40 9 91 6 115 -6z m1209 -137 c19 -5 38 -15 43 -22 4 -7 8 -90 8 -184 0
-148 -2 -173 -16 -178 -23 -9 -103 -7 -186 4 -40 5 -119 14 -176 19 -57 5
-110 15 -119 23 -32 27 11 262 58 312 12 14 38 21 86 26 106 11 265 11 302 0z
m-2149 -199 c20 -21 47 -65 59 -97 13 -32 32 -80 42 -106 24 -60 24 -74 -3
-92 -24 -15 -137 -55 -246 -87 -96 -27 -96 -27 -186 142 -42 79 -54 133 -35
156 27 32 252 122 308 123 15 0 37 -14 61 -39z m1044 -106 c17 -17 23 -55 31
-201 4 -56 12 -131 20 -165 20 -95 14 -99 -173 -115 -83 -7 -166 -16 -186 -20
-23 -4 -42 -2 -51 6 -49 41 -130 297 -119 380 3 25 8 48 10 52 12 19 124 43
339 71 70 9 114 6 129 -8z m921 -155 c107 -12 175 -35 175 -59 0 -19 -44 -217
-62 -279 -22 -76 -28 -77 -169 -43 -68 16 -166 37 -217 47 -52 9 -103 25 -115
34 -20 17 -20 18 -4 53 9 19 17 38 17 42 0 4 14 51 31 105 20 67 36 100 47
103 32 9 208 7 297 -3z m-1754 -172 c36 -39 109 -161 121 -202 15 -49 5 -57
-111 -87 -138 -35 -173 -35 -234 -4 -70 36 -131 98 -157 157 -26 60 -22 74 22
83 18 4 76 20 128 35 156 47 201 50 231 18z m1368 -233 c31 -7 136 -33 234
-56 102 -24 188 -50 201 -60 44 -35 60 -167 30 -245 -19 -51 -45 -64 -128 -64
-146 0 -350 -44 -540 -117 -58 -22 -102 -33 -121 -30 -16 2 -88 28 -158 58
-92 38 -127 57 -125 68 2 10 47 30 126 57 131 44 158 59 128 70 -27 10 -120
-3 -250 -36 -163 -42 -152 -42 -421 34 -61 17 -141 33 -216 41 -61 7 -99 32
-99 65 0 27 19 35 174 75 145 37 157 41 224 87 68 47 112 51 806 66 44 1 105
-5 135 -13z m-1734 -104 c78 -21 145 -52 165 -75 19 -24 -2 -43 -79 -66 -100
-31 -150 -58 -157 -85 -13 -53 7 -55 152 -19 56 14 110 24 119 22 17 -3 19 0
-67 -80 -20 -19 -40 -48 -43 -64 -12 -56 -24 -74 -48 -74 -13 0 -32 10 -43 21
-28 32 -122 92 -179 116 -27 11 -76 24 -108 28 -69 8 -79 21 -70 96 7 62 41
120 81 139 43 20 165 59 187 59 11 1 52 -8 90 -18z m566 -340 c79 -48 86 -70
32 -105 -22 -15 -52 -46 -67 -70 -15 -24 -38 -47 -50 -50 -23 -6 -143 17 -188
35 -43 18 -44 43 -5 102 91 136 162 158 278 88z m369 -49 c216 -77 295 -114
298 -140 3 -20 0 -22 -50 -22 -43 0 -63 -6 -104 -32 -32 -21 -56 -44 -63 -63
-10 -28 -9 -32 19 -55 19 -16 30 -34 30 -51 0 -28 16 -49 40 -49 17 0 155 108
181 142 10 13 23 19 32 15 13 -5 14 -12 7 -39 -12 -41 0 -56 35 -40 14 6 25
17 25 24 0 24 50 88 69 88 10 0 31 -6 47 -14 16 -8 90 -41 164 -74 280 -122
374 -171 399 -208 22 -32 23 -38 11 -77 -7 -23 -26 -68 -42 -101 -32 -64 -29
-80 18 -74 19 2 35 13 49 35 24 38 40 46 64 33 60 -32 65 -517 6 -606 -38 -59
-261 -130 -497 -160 -111 -14 -147 -15 -241 -5 -119 13 -153 24 -222 71 -182
125 -289 302 -289 477 0 65 3 77 31 115 23 32 39 44 61 46 26 3 35 -3 56 -35
32 -50 113 -144 153 -177 37 -31 93 -46 93 -25 0 8 -13 32 -28 55 -15 23 -39
60 -54 82 -54 81 -22 93 70 28 26 -18 63 -39 83 -46 57 -20 91 2 52 34 -105
85 -143 118 -143 127 0 8 34 9 110 4 108 -7 110 -7 110 14 0 12 -2 21 -4 21
-16 0 -288 88 -361 117 -133 52 -308 111 -405 134 -88 21 -352 143 -358 166
-2 8 39 12 147 15 l149 3 39 31 c45 36 83 98 83 136 0 15 -15 46 -35 72 -19
26 -35 51 -35 57 0 16 63 1 200 -49z m-1141 -7 c77 -38 73 -59 -17 -104 -24
-12 -42 -27 -39 -34 5 -17 84 -29 148 -21 67 7 88 -2 168 -71 30 -25 76 -57
102 -70 26 -14 50 -29 53 -34 9 -15 -17 -29 -90 -51 -38 -11 -107 -32 -152
-46 -46 -14 -93 -23 -105 -20 -23 6 -119 134 -138 183 -6 15 -16 35 -23 43
-26 29 -36 210 -14 237 16 20 53 16 107 -12z m2390 -31 c12 -30 26 -76 32
-102 5 -25 15 -52 21 -59 12 -15 38 -151 38 -204 0 -36 -14 -59 -37 -59 -7 0
-35 14 -62 30 -27 17 -78 42 -113 56 -148 60 -220 95 -225 110 -3 10 -1 13 82
88 29 26 55 58 60 77 12 40 115 118 157 119 23 0 29 -7 47 -56z m-335 -19 c-1
-11 -112 -74 -131 -75 -36 -1 6 59 56 82 23 10 76 5 75 -7z m-520 -111 c4 -9
5 -17 4 -18 -2 -1 -18 -9 -36 -18 -46 -25 -62 -23 -62 7 0 17 7 29 23 35 35
14 64 11 71 -6z m-167 -30 c8 -20 -13 -42 -27 -28 -12 12 -3 44 11 44 5 0 12
-7 16 -16z m198 -13 c3 -5 1 -12 -5 -16 -5 -3 -10 1 -10 9 0 18 6 21 15 7z
m-841 -237 c124 -44 130 -47 134 -67 4 -18 -68 -87 -193 -187 -144 -115 -255
-227 -255 -259 0 -6 9 -11 19 -11 20 0 79 43 251 180 102 81 144 110 159 110
5 0 11 -12 13 -27 7 -59 70 -35 123 47 45 70 71 90 115 90 46 0 80 -14 80 -33
0 -7 -16 -34 -35 -62 -19 -27 -49 -70 -65 -94 -50 -71 -90 -169 -90 -219 0
-47 35 -120 94 -197 17 -21 42 -56 56 -76 82 -122 108 -155 164 -204 67 -61
66 -75 -7 -75 -21 0 -73 -15 -115 -32 -76 -32 -79 -33 -227 -32 -158 1 -284
23 -366 65 -37 19 -91 77 -150 164 -19 28 -46 66 -60 85 -31 41 -139 229 -182
315 -39 78 -94 251 -109 338 -17 101 -13 104 267 178 189 50 246 50 379 3z
m791 -1111 c28 -9 61 -26 75 -38 36 -32 103 -45 239 -45 140 0 144 -2 161 -87
10 -47 9 -76 -4 -162 -9 -59 -19 -132 -22 -164 -7 -68 -23 -82 -112 -103 -173
-40 -488 -62 -514 -36 -9 9 -9 12 0 12 23 0 40 53 33 105 -10 84 -2 205 15
212 24 9 33 -8 44 -86 23 -164 123 -285 105 -127 -4 33 -12 72 -17 86 -17 42
-37 133 -38 167 0 18 -8 54 -19 80 -10 26 -22 70 -26 98 -4 27 -13 62 -21 76
-7 15 -11 29 -8 31 6 7 49 -1 109 -19z m-680 -197 c66 -23 210 -30 288 -13 38
8 76 13 86 10 31 -8 41 -49 41 -174 0 -125 18 -223 46 -245 47 -37 -89 -30
-399 22 -155 26 -191 36 -202 53 -10 17 32 277 54 334 12 31 28 33 86 13z
m-221 -15 c9 -14 -4 -41 -20 -41 -8 0 -14 10 -14 25 0 25 23 35 34 16z m1526
-36 c14 -17 5 -35 -19 -35 -25 0 -32 10 -20 31 12 23 22 24 39 4z"/>
<path d="M4906 3069 c-78 -21 -87 -26 -66 -40 15 -10 94 -5 210 12 73 11 75
12 67 34 -9 21 -121 18 -211 -6z"/>
<path d="M4528 1135 c-9 -10 12 -53 28 -59 8 -3 14 1 14 8 0 19 -34 59 -42 51z"/>
<path d="M4577 954 c-9 -10 4 -67 20 -84 12 -13 13 -9 7 30 -7 47 -16 65 -27
54z"/>
<path d="M8067 4961 c-56 -13 -86 -25 -107 -46 -40 -38 -74 -143 -73 -221 2
-75 35 -214 65 -274 21 -42 23 -56 20 -192 -3 -125 1 -169 23 -290 15 -79 33
-170 41 -203 8 -33 23 -105 33 -160 10 -55 24 -114 30 -132 7 -17 11 -46 9
-65 -3 -29 -7 -33 -35 -36 -27 -3 -54 11 -152 77 -132 89 -234 143 -300 161
-47 12 -186 15 -261 4 -63 -9 -182 -67 -231 -114 -39 -37 -41 -42 -37 -83 3
-24 18 -71 33 -105 25 -57 28 -92 7 -92 -20 0 -318 255 -421 360 -40 41 -89
99 -109 128 -24 36 -60 69 -120 110 l-84 57 -112 0 c-104 -1 -115 -3 -171 -32
-43 -22 -67 -42 -80 -66 -18 -33 -18 -38 -2 -74 9 -21 19 -54 23 -73 13 -69
119 -239 213 -342 19 -21 40 -46 47 -57 8 -10 58 -56 111 -102 54 -46 114 -99
133 -118 19 -18 87 -77 150 -130 159 -133 184 -159 204 -216 10 -27 29 -79 42
-115 13 -36 27 -81 30 -100 4 -19 11 -43 16 -53 5 -11 20 -53 33 -95 13 -43
46 -140 73 -217 28 -77 58 -162 67 -190 10 -27 30 -79 46 -115 15 -36 30 -76
34 -90 4 -14 13 -32 20 -40 7 -8 16 -25 19 -37 8 -25 60 -113 91 -155 11 -15
33 -45 50 -68 16 -22 51 -55 77 -72 65 -41 126 -112 139 -162 8 -28 9 -104 4
-238 l-7 -197 26 -24 c15 -14 39 -28 54 -32 15 -3 56 -18 92 -32 36 -14 110
-40 165 -57 l100 -31 310 1 c650 4 910 59 1107 235 58 52 68 66 77 110 15 70
14 109 -8 240 -29 173 -32 214 -21 245 6 16 48 65 93 109 74 72 84 87 105 150
30 96 35 189 20 393 -8 101 -11 203 -6 245 4 40 5 146 2 237 -2 91 -9 326 -15
524 l-10 358 24 37 c24 37 30 53 81 216 24 77 36 181 51 425 3 52 11 127 17
167 8 58 8 85 -5 145 -9 40 -18 94 -22 121 -9 70 -66 186 -116 237 -31 32 -58
49 -92 58 -59 15 -209 16 -278 1 -67 -14 -89 -37 -89 -91 0 -24 -9 -65 -19
-93 -18 -47 -52 -198 -74 -330 -5 -33 -20 -95 -33 -138 -13 -43 -24 -88 -24
-101 0 -30 -49 -181 -105 -321 -24 -60 -46 -121 -51 -135 -4 -14 -20 -51 -36
-82 -28 -56 -31 -58 -68 -58 -50 0 -63 19 -84 124 -11 55 -16 136 -16 275 l-1
196 -65 190 c-36 105 -76 226 -89 270 -29 96 -72 222 -84 250 -5 11 -12 34
-14 50 -8 42 -65 129 -105 155 -72 50 -232 63 -375 31z m249 -82 c22 -12 70
-42 106 -69 l66 -48 -1 -64 c0 -47 7 -77 27 -119 26 -56 36 -133 22 -176 -6
-19 -17 -22 -84 -27 -42 -3 -111 -11 -152 -16 -108 -15 -196 -13 -230 5 -22
11 -32 26 -39 58 -6 23 -21 71 -33 107 -26 77 -35 203 -19 253 15 45 69 100
112 115 49 16 175 5 225 -19z m1345 -190 c45 -20 53 -28 81 -88 28 -58 32 -78
36 -174 6 -152 12 -147 -187 -146 -94 0 -169 5 -190 12 -32 11 -34 16 -58 107
-30 121 -31 164 -4 201 11 15 21 32 21 37 0 16 37 43 86 63 60 24 141 19 215
-12z m-1181 -379 c54 -8 81 -18 98 -34 60 -59 110 -331 97 -526 -5 -63 -9
-160 -10 -214 -2 -78 -6 -102 -19 -111 -8 -7 -55 -15 -103 -19 -188 -17 -279
-22 -297 -17 -21 4 -61 87 -72 147 -4 22 -13 52 -21 68 -21 42 -45 194 -33
216 5 9 36 27 69 40 70 26 104 56 81 70 -19 12 -25 12 -93 0 -74 -14 -92 -4
-100 52 -10 75 22 272 49 298 25 24 154 50 224 45 30 -2 89 -9 130 -15z m1248
-107 c37 -33 58 -325 26 -371 -13 -18 -25 -22 -74 -22 -109 0 -114 -25 -14
-71 56 -24 64 -32 64 -55 0 -15 -9 -41 -19 -58 -11 -17 -24 -58 -30 -90 -20
-111 -45 -126 -168 -103 -43 9 -100 18 -128 22 -98 12 -185 37 -211 62 -24 22
-26 29 -21 82 6 67 39 150 72 181 21 20 35 22 134 23 88 2 114 5 127 19 15 15
15 17 -7 31 -13 8 -62 20 -107 27 -119 16 -115 14 -107 76 3 30 15 78 26 109
10 30 19 65 19 78 0 13 6 32 14 42 12 17 24 18 132 12 86 -5 134 -3 174 7 74
19 75 19 98 -1z m-3332 -448 c27 -13 65 -44 85 -67 81 -98 139 -178 139 -193
0 -19 -54 -53 -158 -99 -95 -41 -113 -43 -156 -17 -45 28 -74 71 -134 200 -50
108 -52 115 -37 138 45 67 166 85 261 38z m1175 -255 c35 -11 98 -39 139 -62
102 -59 270 -185 270 -203 0 -9 -21 -20 -57 -30 -72 -19 -142 -54 -154 -77
-14 -26 -11 -60 11 -95 38 -63 -12 -51 -129 31 -97 67 -229 146 -306 182 -72
34 -155 111 -155 143 0 57 146 129 261 130 31 1 85 -8 120 -19z m-823 -114
c20 -13 59 -44 87 -69 61 -54 62 -54 -80 -136 -134 -79 -161 -80 -233 -16 -59
53 -95 106 -86 128 7 20 67 60 134 91 72 33 129 33 178 2z m2625 -53 c100 -14
126 -14 169 -4 31 9 53 10 59 4 8 -8 15 -363 10 -455 -1 -12 -19 -20 -67 -31
-36 -9 -69 -18 -72 -22 -10 -9 16 -22 57 -29 59 -9 84 -44 93 -129 12 -126 10
-213 -7 -227 -21 -17 -53 5 -203 141 -69 63 -144 131 -166 151 l-41 36 23 25
c40 43 23 54 -99 62 -146 9 -222 35 -490 163 -76 37 -195 79 -316 111 -58 16
-103 55 -103 90 0 38 26 59 102 83 55 17 105 21 393 28 182 5 346 13 365 19
40 12 126 7 293 -16z m-2367 -176 c28 -16 163 -166 177 -196 10 -20 7 -26 -23
-52 -94 -79 -154 -119 -178 -119 -27 0 -127 74 -215 158 -72 69 -71 86 6 133
60 37 175 88 197 88 8 0 24 -5 36 -12z m415 -53 c39 -20 35 -48 -7 -52 -34 -3
-70 28 -61 53 8 19 30 19 68 -1z m640 6 c33 -18 21 -38 -52 -86 l-70 -47 -26
20 c-61 45 -56 74 17 104 51 20 102 24 131 9z m319 -156 c94 -42 97 -50 46
-148 -56 -105 -74 -116 -153 -92 -120 37 -173 72 -173 113 0 68 65 148 134
163 37 8 63 1 146 -36z m-753 13 c17 -7 80 -57 139 -112 59 -55 128 -118 152
-140 56 -52 50 -67 -41 -94 -226 -69 -359 -119 -372 -141 -2 -4 2 -13 10 -20
19 -16 44 -10 253 57 199 63 260 70 329 34 49 -24 109 -75 124 -103 15 -28 4
-38 -147 -129 -73 -44 -136 -84 -140 -90 -3 -5 -24 -22 -47 -36 -23 -14 -70
-53 -104 -86 -53 -51 -63 -65 -63 -94 0 -53 34 -40 97 37 125 154 128 156 229
163 45 3 61 12 148 78 148 113 143 111 229 79 128 -48 117 -78 -98 -271 -82
-73 -95 -93 -106 -155 -23 -141 -4 -302 48 -391 45 -77 174 -173 233 -173 11
0 39 -17 63 -39 23 -21 57 -46 75 -55 l33 -17 -21 -33 c-24 -40 -25 -75 -5
-179 8 -43 15 -105 15 -137 0 -71 6 -90 31 -90 21 0 25 14 33 113 3 37 12 77
21 90 23 33 19 92 -10 135 -55 81 -19 93 96 33 46 -24 105 -45 157 -55 46 -9
106 -26 133 -36 61 -25 61 -25 89 0 37 32 54 22 61 -36 4 -28 12 -61 19 -74 7
-12 21 -59 31 -103 l20 -80 -23 -46 c-17 -35 -34 -51 -68 -68 -60 -29 -222
-63 -337 -70 l-92 -6 -41 37 c-22 20 -49 36 -59 36 -10 0 -31 -16 -45 -35 -32
-42 -57 -56 -98 -57 -29 -1 -63 26 -53 41 2 4 9 45 15 91 6 47 12 89 13 94 1
6 -15 18 -35 28 -20 9 -39 27 -43 38 -3 11 -12 20 -20 20 -22 0 -47 -86 -73
-255 -10 -67 -31 -78 -135 -70 -84 7 -330 66 -377 90 -16 8 -33 23 -38 33 -10
18 -21 121 -28 259 -5 95 2 102 81 82 57 -14 214 -8 377 17 116 17 116 17 151
-5 37 -23 63 -20 72 9 3 9 14 25 25 35 49 44 4 58 -100 30 -60 -16 -146 -20
-154 -7 -3 5 31 24 76 42 108 45 173 100 118 100 -11 0 -60 -13 -108 -29 -211
-69 -548 -41 -660 55 -46 39 -148 160 -181 215 -39 63 -134 263 -152 319 -9
30 -31 93 -49 140 -17 47 -37 103 -44 125 -8 22 -25 68 -40 102 -32 76 -33
107 -5 127 26 18 21 37 -17 56 -16 8 -37 21 -48 30 -25 21 -96 176 -96 212 0
43 35 87 135 170 114 94 149 115 249 149 87 30 142 34 193 16z m1141 -116 c76
-26 176 -65 292 -114 20 -9 44 -25 54 -36 19 -21 19 -21 0 -43 -10 -12 -35
-36 -54 -52 -19 -17 -42 -39 -53 -49 -20 -20 -67 -40 -75 -33 -10 11 9 37 42
57 42 25 71 65 53 72 -21 8 -86 -19 -152 -64 -89 -60 -118 -129 -76 -180 16
-20 28 -24 64 -22 25 1 66 10 91 22 25 11 67 23 93 26 28 4 75 23 114 46 90
54 110 52 177 -23 20 -22 65 -60 101 -85 69 -48 100 -78 131 -127 23 -36 17
-53 -44 -134 -25 -33 -46 -65 -46 -70 0 -23 23 -22 71 4 42 24 52 26 60 13 16
-26 16 -270 -1 -339 -30 -123 -45 -159 -84 -210 -92 -119 -180 -166 -366 -194
-119 -18 -254 -7 -428 35 -68 16 -133 29 -144 29 -23 0 -48 21 -137 111 -65
65 -98 141 -112 252 -15 116 7 189 91 302 50 67 157 165 181 165 10 0 55 -33
100 -72 130 -117 170 -146 241 -174 62 -25 98 -27 98 -6 0 5 -9 13 -20 18 -40
18 -179 140 -180 157 0 10 11 22 25 27 31 12 32 33 3 53 l-23 15 29 30 28 30
-23 16 c-13 8 -67 27 -119 41 -177 49 -333 116 -495 215 -120 72 -145 106 -72
96 23 -3 78 -9 122 -12 69 -5 87 -3 126 15 62 29 160 110 179 146 24 49 40 75
46 75 2 0 44 -13 92 -29z"/>
<path d="M7584 3350 c-33 -16 -71 -41 -85 -56 -23 -24 -23 -26 -6 -39 20 -15
43 -10 119 24 57 26 81 56 67 83 -13 24 -26 23 -95 -12z"/>
<path d="M8036 2074 c-9 -8 -16 -20 -16 -26 0 -6 -11 -34 -24 -62 -30 -62 -41
-201 -16 -201 8 0 20 11 27 25 29 59 82 248 75 268 -6 17 -27 15 -46 -4z"/>
<path d="M13769 4966 c-68 -15 -136 -53 -176 -99 -28 -32 -31 -42 -37 -133 -4
-55 -11 -248 -16 -429 -6 -210 -15 -357 -24 -405 -8 -41 -17 -112 -20 -157 -7
-95 -38 -183 -82 -237 -44 -53 -71 -47 -106 22 -58 114 -194 254 -314 323 -54
31 -59 32 -138 26 -104 -9 -267 -33 -314 -48 -99 -31 -122 -54 -122 -124 0
-33 -21 -65 -43 -65 -19 0 -137 129 -189 205 -151 222 -197 288 -277 388 -153
193 -235 256 -333 257 -134 0 -300 -46 -334 -94 -9 -13 -14 -47 -14 -98 0
-112 36 -196 175 -408 35 -52 72 -113 84 -135 12 -22 44 -83 72 -135 27 -52
56 -102 64 -110 8 -9 15 -20 15 -24 0 -4 35 -78 78 -165 105 -215 104 -212 91
-228 -14 -16 -63 -16 -111 1 -52 19 -173 89 -242 141 -33 24 -100 59 -154 80
-140 54 -229 100 -308 160 -182 140 -300 210 -433 256 -69 24 -88 24 -155 -2
-41 -15 -68 -34 -101 -72 -25 -28 -45 -58 -45 -65 0 -37 61 -124 144 -207 132
-129 385 -326 501 -390 188 -103 316 -204 431 -340 160 -190 227 -304 468
-805 49 -101 121 -237 181 -338 42 -71 86 -121 132 -149 149 -92 220 -216 249
-434 7 -58 16 -113 19 -122 4 -8 0 -35 -8 -59 -20 -58 -12 -91 33 -132 45 -40
108 -55 393 -91 362 -46 814 18 1184 166 157 64 319 145 327 164 3 9 -1 44 -9
78 -7 34 -17 89 -20 122 -15 133 -36 293 -46 345 -19 97 -12 117 61 179 80 66
95 95 105 191 10 112 12 134 20 395 7 222 6 248 -13 345 -12 58 -31 159 -42
225 -12 66 -26 147 -32 180 -7 40 -8 247 -4 629 7 656 0 814 -45 1006 -32 131
-67 233 -101 288 -11 18 -46 50 -77 72 -96 65 -213 84 -342 56z m212 -89 c42
-22 98 -95 130 -167 17 -38 39 -150 39 -197 0 -36 -3 -43 -22 -47 -59 -12
-281 -28 -348 -24 -71 3 -75 4 -89 32 -19 41 -44 214 -36 261 8 54 50 122 88
146 49 29 179 27 238 -4z m-2388 -448 c42 -11 156 -112 192 -169 12 -19 45
-78 72 -130 28 -52 59 -109 69 -126 9 -17 15 -38 12 -46 -4 -9 -40 -24 -90
-37 -46 -12 -120 -33 -164 -47 -107 -32 -128 -31 -151 5 -10 16 -44 63 -76
105 -74 97 -116 196 -124 287 -6 67 -5 71 22 99 16 16 49 36 74 44 88 28 110
30 164 15z m2477 -39 c82 -19 99 -30 109 -69 14 -52 30 -185 33 -265 4 -92 -3
-96 -119 -73 -60 12 -136 18 -238 18 -206 0 -195 -10 -195 178 0 184 0 184
115 204 97 17 234 20 295 7z m-111 -474 c80 -14 167 -28 193 -31 68 -9 73 -19
59 -118 -23 -168 -37 -246 -44 -253 -10 -10 -46 -9 -202 5 -174 16 -303 38
-332 56 -17 11 -23 28 -28 77 -7 80 8 211 29 243 33 50 116 56 325 21z m-1952
-47 c17 -5 44 -27 61 -47 17 -20 56 -64 86 -96 61 -67 62 -86 4 -105 -18 -5
-105 -33 -194 -60 -88 -28 -172 -51 -186 -51 -49 0 -129 115 -141 203 -9 58
17 78 153 120 63 20 129 38 145 40 17 2 33 5 36 6 3 0 20 -4 36 -10z m965 -79
c72 -22 89 -37 114 -95 9 -22 25 -53 36 -68 24 -33 19 -86 -12 -145 -14 -26
-20 -56 -20 -102 0 -91 -15 -110 -85 -110 -118 0 -231 -41 -333 -122 -78 -61
-97 -60 -131 7 -26 49 -26 52 -26 290 0 132 3 252 7 266 9 32 65 56 193 80
121 23 181 23 257 -1z m-2330 -150 c61 -31 85 -49 209 -153 73 -62 81 -79 55
-129 -8 -16 -11 -28 -5 -28 5 0 9 5 9 11 0 8 21 10 63 7 54 -3 77 -11 153 -54
57 -33 90 -58 92 -70 2 -14 -15 -31 -65 -63 -37 -24 -87 -59 -110 -78 -52 -41
-97 -44 -153 -8 -50 32 -109 111 -110 148 0 25 -3 27 -43 27 -51 0 -100 25
-184 93 -125 101 -183 198 -162 271 11 39 21 48 66 57 59 12 120 2 185 -31z
m1638 -126 c52 -47 110 -126 110 -150 0 -61 -71 -115 -222 -168 -51 -18 -117
-44 -147 -56 -48 -21 -56 -22 -79 -9 -16 9 -30 32 -42 69 -18 61 -54 136 -77
162 -8 9 -13 27 -11 40 2 19 17 28 83 51 120 43 297 96 322 96 13 1 41 -15 63
-35z m1366 -24 c32 -6 86 -17 119 -24 33 -8 116 -24 185 -36 69 -12 149 -29
179 -38 51 -16 55 -20 67 -61 7 -23 14 -104 16 -180 l3 -136 -60 -30 c-58 -29
-65 -30 -190 -29 -112 1 -140 4 -205 27 -115 39 -223 84 -360 148 -69 33 -142
67 -162 77 -72 33 -55 88 34 117 86 28 130 54 184 107 44 43 71 57 125 67 3 1
32 -4 65 -9z m-1271 -316 c9 -4 25 -25 37 -47 35 -70 128 -209 190 -285 33
-40 58 -79 55 -86 -3 -7 -26 -16 -51 -19 -25 -4 -61 -17 -81 -29 -71 -46 -37
-56 119 -33 134 19 155 15 201 -35 l20 -22 -28 -20 c-51 -37 -36 -47 66 -45
88 2 96 0 182 -39 64 -28 91 -46 93 -60 1 -12 -37 -65 -109 -149 -116 -135
-189 -237 -189 -263 0 -9 -15 -30 -34 -47 l-34 -31 15 -64 c58 -250 97 -329
204 -417 38 -31 69 -62 69 -68 0 -12 -319 -107 -425 -126 -74 -14 -242 -5
-310 15 -57 17 -89 47 -130 121 -16 28 -35 58 -43 67 -27 33 -232 379 -232
393 0 5 38 48 85 96 92 95 106 129 56 129 -23 0 -42 -14 -93 -70 -37 -40 -73
-70 -84 -70 -10 0 -26 12 -35 28 -48 79 -101 169 -109 182 -5 8 -37 62 -71
120 -34 58 -78 132 -97 165 -19 33 -43 71 -52 85 -50 76 -81 142 -78 167 2 20
28 49 98 110 181 159 270 212 392 233 35 7 126 36 203 65 141 53 170 60 200
49z m674 -5 c46 -14 115 -60 119 -80 2 -10 -20 -33 -52 -58 -31 -23 -72 -67
-91 -97 -36 -56 -37 -56 -79 -52 -66 8 -165 56 -172 85 -17 68 29 139 119 182
67 33 99 37 156 20z m-1563 -76 c58 -32 117 -68 132 -80 l27 -21 -35 -31 c-98
-85 -204 -161 -225 -161 -23 0 -190 102 -249 152 -21 18 -27 30 -22 45 12 37
196 152 244 153 13 0 70 -26 128 -57z m1903 -47 c31 -13 130 -54 221 -91 91
-37 171 -73 179 -80 25 -25 5 -45 -44 -45 -39 0 -50 -5 -85 -39 -22 -21 -40
-47 -40 -57 0 -11 -11 -42 -24 -71 -26 -55 -23 -64 20 -77 22 -7 130 45 150
71 12 17 45 14 51 -4 3 -7 -7 -17 -21 -23 -14 -5 -26 -16 -26 -25 0 -24 18
-18 55 19 39 39 120 79 145 71 9 -3 77 -65 151 -138 105 -103 141 -145 162
-190 15 -32 27 -69 27 -82 0 -43 -30 -102 -71 -139 -45 -40 -46 -55 -6 -74 44
-21 49 -43 45 -191 -3 -124 -5 -141 -30 -192 -29 -59 -45 -69 -248 -162 -141
-64 -276 -97 -400 -97 -128 0 -337 49 -423 100 -40 24 -80 72 -92 110 -4 14
-13 34 -19 45 -31 48 -70 212 -74 301 -3 87 -2 92 24 125 64 79 177 194 231
236 51 39 71 27 117 -67 25 -54 51 -90 76 -110 35 -28 45 -30 135 -34 53 -3
103 -2 111 1 25 9 15 31 -26 52 -62 32 -150 132 -150 170 0 26 28 41 77 41 43
0 80 21 69 38 -3 6 -21 13 -39 17 -17 4 -50 13 -72 20 -22 8 -79 16 -126 19
-119 8 -200 39 -409 154 -241 132 -388 297 -188 209 125 -55 214 -60 306 -16
89 42 161 121 162 175 0 29 15 54 33 54 5 0 35 -11 66 -24z m820 -145 c19 -19
43 -126 45 -201 1 -32 -2 -35 -29 -38 -26 -2 -44 11 -132 97 -57 55 -103 104
-103 110 0 14 39 29 104 40 79 13 95 12 115 -8z m-1034 -1521 c3 -5 -1 -10 -9
-10 -9 0 -16 5 -16 10 0 6 4 10 9 10 6 0 13 -4 16 -10z m221 -51 l59 -31 135
6 c74 4 161 9 193 12 76 8 101 0 116 -33 17 -36 39 -189 41 -278 1 -79 2 -174
1 -192 -1 -7 -18 -21 -39 -32 -64 -33 -264 -110 -301 -117 -20 -4 -45 -11 -56
-17 -11 -6 -60 -12 -110 -13 -49 -1 -109 -8 -132 -15 -38 -12 -44 -11 -63 6
-11 10 -20 25 -20 33 0 25 -31 52 -59 52 -43 0 -55 -14 -53 -59 3 -36 0 -41
-24 -47 -39 -10 -493 43 -519 60 -20 13 -23 26 -28 123 -6 114 -27 229 -52
289 -33 80 -16 98 86 87 68 -7 164 12 324 62 61 20 122 38 138 41 33 7 57 -10
57 -41 0 -50 57 -55 101 -9 30 32 50 30 71 -6 17 -29 43 -48 54 -37 3 3 -2 22
-10 42 -16 38 -22 126 -9 138 13 14 42 6 99 -24z"/>
<path d="M12783 3470 c-13 -5 -23 -16 -23 -24 0 -8 -8 -22 -17 -32 -17 -16
-13 -17 62 -12 82 6 155 28 155 48 0 26 -126 41 -177 20z"/>
<path d="M10835 3300 c-3 -5 1 -10 9 -10 9 0 16 5 16 10 0 6 -4 10 -9 10 -6 0
-13 -4 -16 -10z"/>
<path d="M12450 1861 c0 -20 17 -37 27 -28 7 8 -7 47 -18 47 -5 0 -9 -9 -9
-19z"/>
<path d="M13115 1147 c-9 -21 2 -67 15 -67 12 0 12 37 0 65 -7 18 -8 19 -15 2z"/>
<path d="M13317 993 c-12 -11 -8 -23 8 -23 8 0 15 7 15 15 0 16 -12 20 -23 8z"/>
<path d="M16970 4961 c-134 -35 -196 -87 -194 -165 1 -35 32 -116 72 -186 62
-109 69 -129 81 -235 16 -152 70 -333 154 -522 21 -45 37 -90 37 -100 0 -10
11 -39 25 -65 14 -26 25 -59 25 -73 0 -14 10 -51 21 -83 22 -59 38 -140 31
-160 -7 -22 -40 -12 -67 21 -15 17 -44 59 -66 92 -21 33 -53 80 -70 105 -29
41 -75 108 -265 386 -62 92 -144 222 -144 231 0 2 -20 38 -45 79 -25 41 -62
105 -82 142 -53 100 -98 165 -148 215 -39 39 -55 48 -121 63 l-75 18 -136 -35
c-143 -36 -210 -68 -219 -106 -12 -47 34 -180 75 -217 12 -11 21 -25 21 -33 0
-7 11 -34 24 -60 36 -70 86 -180 86 -188 0 -7 22 -55 99 -218 28 -59 51 -110
51 -113 0 -17 122 -264 130 -264 4 0 12 -11 18 -25 6 -14 33 -53 60 -88 83
-108 143 -205 149 -242 5 -30 1 -41 -22 -65 -34 -36 -86 -54 -130 -47 -18 3
-128 63 -245 134 -117 70 -244 146 -282 168 -64 38 -159 113 -271 215 -84 77
-189 150 -272 190 -88 42 -229 75 -280 66 -59 -11 -139 -73 -171 -132 l-29
-54 25 -47 c42 -81 90 -146 144 -196 94 -89 189 -169 240 -203 28 -19 62 -43
76 -53 14 -11 84 -58 155 -105 360 -235 525 -366 525 -416 0 -11 14 -35 31
-55 18 -20 64 -100 104 -178 40 -78 156 -308 259 -512 161 -320 192 -375 229
-405 105 -88 135 -124 152 -185 16 -55 17 -64 2 -125 -54 -225 -60 -285 -37
-380 21 -86 7 -81 560 -185 41 -7 127 -24 190 -36 103 -19 135 -21 315 -15
110 3 227 10 260 15 33 5 98 15 145 21 108 15 329 70 398 100 32 14 52 29 52
39 3 98 14 249 27 346 8 66 18 147 23 181 4 34 12 70 18 80 6 11 41 37 79 58
74 40 139 101 193 181 19 28 42 59 51 70 9 11 20 31 24 45 4 14 24 61 45 105
20 44 40 93 44 110 4 16 18 52 31 80 58 122 75 180 75 256 0 41 -4 89 -10 107
-5 19 -14 79 -20 135 -16 144 -58 272 -115 358 l-48 69 8 128 c13 228 12 266
-3 362 -23 152 -85 276 -160 321 -82 48 -148 61 -340 67 -162 4 -187 3 -225
-13 -61 -27 -143 -89 -217 -166 -36 -37 -75 -70 -86 -73 -26 -8 -54 16 -54 46
0 29 -40 181 -51 193 -5 5 -9 18 -9 30 -1 11 -8 38 -16 60 -9 22 -26 72 -40
110 -13 39 -28 79 -34 90 -21 46 -68 162 -75 185 -15 48 -125 276 -257 527
-84 163 -142 211 -275 232 -96 15 -155 13 -233 -8z m255 -71 c53 -16 131 -97
146 -154 6 -22 19 -63 30 -91 10 -27 26 -83 35 -124 21 -93 20 -94 -114 -110
-53 -7 -124 -16 -157 -22 -33 -6 -69 -12 -80 -14 -11 -2 -28 0 -37 3 -21 9
-66 75 -83 122 -7 19 -20 49 -29 65 -9 17 -16 40 -16 51 0 12 -11 61 -25 108
-14 47 -25 95 -25 105 0 21 37 51 85 69 36 14 212 8 270 -8z m-997 -282 c43
-20 100 -93 117 -149 4 -13 15 -35 24 -49 9 -14 37 -65 61 -114 33 -67 41 -92
33 -105 -9 -15 -36 -23 -255 -73 -83 -18 -99 -19 -113 -8 -25 21 -115 143
-115 156 0 6 -9 19 -21 30 -47 42 -100 183 -87 231 25 96 229 142 356 81z
m1287 -246 c28 -19 152 -242 168 -300 17 -63 2 -73 -124 -84 -57 -4 -112 -14
-124 -22 -15 -10 -60 -15 -151 -16 -71 -1 -135 -2 -142 -1 -19 2 -61 106 -78
191 -18 94 -18 144 0 159 21 18 174 61 246 70 86 11 192 13 205 3z m-965 -290
c20 -22 44 -55 53 -75 10 -20 22 -39 28 -42 5 -4 21 -23 34 -43 13 -21 38 -57
55 -81 53 -75 57 -73 -207 -136 -84 -20 -162 -34 -173 -30 -11 4 -32 28 -46
53 -14 26 -45 81 -69 122 -48 80 -57 129 -30 166 25 37 203 101 284 103 27 1
42 -7 71 -37z m1147 -206 c10 -9 31 -72 109 -335 19 -64 12 -74 -58 -85 -24
-4 -51 -15 -61 -24 -14 -12 -38 -17 -86 -18 -36 0 -98 -4 -137 -8 -40 -5 -83
-6 -97 -2 -26 6 -50 48 -92 161 -13 33 -37 96 -54 140 -17 44 -31 88 -31 97 0
29 178 72 365 87 95 8 123 6 142 -13z m-2555 -143 c109 -43 371 -254 352 -284
-3 -6 -36 -30 -73 -53 -36 -24 -86 -59 -109 -79 -25 -21 -55 -37 -69 -37 -59
0 -220 140 -266 233 -29 56 -43 131 -33 170 3 15 19 29 43 40 77 32 96 33 155
10z m3548 -59 c36 -9 82 -27 102 -40 84 -54 59 -124 -107 -299 -55 -58 -113
-132 -120 -155 -14 -45 -60 -35 -151 33 -95 72 -169 81 -291 35 -29 -11 -58
-16 -64 -12 -33 20 37 182 95 222 19 13 37 33 40 45 5 22 113 138 152 164 52
34 216 37 344 7z m-1870 -11 c67 -47 143 -170 156 -252 7 -44 9 -43 -83 -77
-252 -95 -252 -95 -281 -80 -38 20 -107 96 -171 190 -37 53 -53 128 -31 141
20 12 178 54 264 70 44 9 82 17 84 20 10 10 38 5 62 -12z m-1132 -353 c50 -33
94 -65 98 -71 3 -6 1 -21 -6 -32 -17 -32 -177 -147 -203 -147 -26 0 -154 65
-191 97 -25 22 -33 57 -18 79 10 15 203 134 217 134 6 0 53 -27 103 -60z
m2218 6 l28 -23 -17 -134 c-9 -74 -19 -171 -23 -217 -5 -70 -10 -85 -28 -97
-21 -14 -172 -59 -250 -75 -23 -4 -86 -18 -141 -29 -124 -27 -244 -50 -310
-61 -85 -14 -329 -60 -347 -66 -26 -8 -22 -33 7 -40 27 -7 135 2 200 16 22 5
114 23 205 40 200 37 409 83 510 111 130 36 150 39 175 33 13 -3 54 -37 90
-75 88 -91 82 -99 -98 -134 -95 -19 -144 -46 -117 -65 8 -6 31 -8 50 -4 34 6
54 9 217 35 74 12 86 11 118 -4 19 -9 41 -28 47 -42 10 -21 8 -27 -7 -39 -21
-15 -180 -66 -207 -66 -32 0 -178 -57 -219 -86 -23 -15 -46 -40 -52 -54 -16
-36 -56 -98 -95 -147 -56 -70 -100 -151 -128 -233 -26 -75 -26 -78 -10 -131
21 -72 45 -108 99 -153 54 -44 98 -59 122 -42 16 11 15 15 -7 42 -43 51 -77
118 -89 173 -9 43 -8 64 6 119 9 36 25 78 36 93 10 15 19 30 19 33 0 15 134
208 159 229 21 18 46 25 93 30 36 3 102 20 148 36 46 17 99 31 117 31 35 0 35
0 48 -85 15 -102 109 -215 177 -215 34 0 35 9 4 74 -52 111 -38 143 39 87 54
-39 89 -44 93 -15 2 13 -6 29 -20 40 -34 27 -68 90 -68 125 0 25 6 33 35 45
19 8 35 18 35 23 0 6 -131 83 -208 121 -40 20 -190 165 -230 224 -100 145
-116 177 -108 208 14 54 160 187 182 166 2 -3 -14 -33 -36 -67 -44 -67 -60
-122 -41 -145 11 -13 117 -68 209 -108 126 -53 259 -28 329 63 20 27 45 49 54
49 9 0 38 -12 64 -27 26 -16 67 -40 92 -54 76 -44 162 -111 169 -131 10 -32
-10 -44 -49 -30 -50 18 -75 15 -113 -15 -27 -20 -34 -32 -30 -48 6 -23 -14
-37 -91 -65 -41 -15 -62 -38 -45 -49 7 -4 96 -6 197 -5 l184 3 10 -37 c40
-149 44 -174 37 -234 -7 -72 -21 -98 -84 -155 l-47 -42 23 -23 c12 -14 22 -28
22 -33 0 -4 -21 -51 -46 -104 -25 -52 -54 -118 -65 -146 -24 -65 -82 -161
-121 -201 -65 -68 -164 -101 -371 -125 -162 -18 -342 0 -575 58 -104 26 -119
-17 -24 -73 24 -14 42 -32 42 -42 0 -59 84 -95 272 -117 73 -8 141 -18 150
-21 23 -7 30 -33 19 -72 -7 -23 -4 -64 11 -144 24 -140 20 -196 -18 -251 -41
-59 -113 -81 -308 -96 -191 -15 -191 -15 -181 109 7 94 -3 202 -41 477 -6 39
-39 62 -60 41 -10 -10 -10 -25 -3 -63 5 -27 7 -55 5 -62 -3 -6 -1 -76 4 -155
11 -159 4 -299 -16 -325 -10 -15 -29 -18 -118 -18 -66 0 -109 4 -117 12 -8 8
-8 32 0 94 6 45 11 121 12 168 0 47 4 95 8 106 5 12 3 33 -5 54 -8 18 -14 44
-14 57 0 30 31 48 53 31 24 -18 47 -151 54 -319 6 -134 8 -148 24 -148 11 0
20 9 23 23 3 12 7 153 9 314 4 273 6 294 25 325 44 71 -3 74 -162 11 -165 -65
-256 -76 -417 -49 -46 8 -105 17 -130 21 -54 7 -111 42 -189 117 -65 62 -160
171 -160 183 0 4 -12 23 -26 42 -26 34 -124 235 -124 254 0 19 -81 213 -96
230 -8 8 -14 20 -14 26 0 5 -16 40 -36 78 -54 101 -47 112 114 170 53 20 72
31 72 45 0 10 -6 20 -14 23 -16 6 -108 -23 -167 -54 -59 -30 -86 -25 -132 24
-60 65 -112 186 -94 222 21 44 354 307 501 395 132 80 315 140 511 170 329 49
572 76 697 79 67 1 80 -2 104 -23z m1023 -25 c13 -23 3 -87 -15 -102 -16 -13
-50 -7 -46 9 2 13 -24 27 -70 36 -53 12 -26 49 47 67 51 12 74 10 84 -10z
m-2941 -155 c27 -14 73 -44 103 -69 30 -24 64 -49 77 -56 41 -22 36 -30 -97
-155 -63 -59 -90 -62 -160 -17 -26 17 -50 31 -54 31 -13 0 -134 74 -159 98
-48 44 -35 68 59 116 28 14 68 37 89 51 46 31 82 32 142 1z m2397 -36 c43 -16
145 -112 145 -136 0 -27 -77 -92 -117 -100 -55 -11 -202 42 -222 80 -11 19 -9
28 9 58 24 41 78 86 118 98 37 11 37 11 67 0z m475 -13 c18 -9 26 -22 28 -46
8 -79 -18 -102 -76 -71 -100 53 -143 101 -110 121 20 13 130 10 158 -4z
m-1835 -1901 c33 -9 113 -20 179 -25 96 -6 121 -11 132 -25 17 -24 9 -457 -9
-469 -13 -9 -73 -2 -162 18 -210 48 -261 61 -279 76 -19 16 -21 27 -20 141 0
68 6 150 14 183 7 33 14 71 15 85 1 14 3 29 4 34 1 10 43 4 126 -18z"/>
<path d="M18238 3472 c-16 -2 -28 -8 -28 -13 0 -15 39 -27 140 -43 52 -8 139
-23 193 -32 102 -18 126 -13 113 21 -13 35 -127 61 -301 67 -49 2 -102 2 -117
0z"/>
<path d="M17430 2320 c-13 -9 -13 -10 0 -10 8 0 22 5 30 10 13 9 13 10 0 10
-8 0 -22 -5 -30 -10z"/>
<path d="M17380 2290 c-13 -8 -13 -10 2 -10 9 0 20 5 23 10 8 13 -5 13 -25 0z"/>
<path d="M18789 4965 c-167 -33 -279 -132 -279 -245 0 -173 224 -272 515 -226
155 24 150 24 153 0 4 -31 -54 -121 -101 -155 -74 -54 -154 -72 -312 -73
l-140 -1 -3 -28 c-2 -16 1 -34 7 -41 25 -30 255 -25 386 9 123 32 222 96 288
187 38 51 71 195 62 266 -13 103 -32 148 -87 203 -28 28 -71 59 -95 70 -112
48 -260 61 -394 34z m276 -99 c28 -13 66 -40 85 -60 31 -33 35 -43 38 -106 3
-45 0 -75 -8 -84 -19 -23 -141 -46 -242 -45 -110 1 -172 19 -223 67 -30 29
-35 40 -35 80 0 62 36 113 103 147 43 21 65 25 141 25 75 0 100 -4 141 -24z"/>
<path d="M2367 1429 c-95 -23 -168 -57 -228 -106 -80 -64 -79 -62 -79 -311 l0
-220 30 -31 c84 -84 260 -125 438 -103 103 13 158 33 227 83 72 52 95 93 95
171 0 59 -3 70 -34 109 -18 25 -55 56 -82 71 -103 56 -283 74 -429 43 -89 -19
-111 -19 -119 1 -9 22 46 106 94 144 86 68 235 102 368 84 40 -6 78 -6 87 -2
22 13 19 65 -4 78 -34 18 -276 11 -364 -11z m225 -398 c73 -34 112 -104 89
-162 -31 -83 -117 -130 -239 -132 -124 -1 -239 61 -262 141 -14 52 -13 127 3
141 55 45 321 54 409 12z"/>
</g>
</svg>
